<?xml version="1.0" encoding="UTF-8" standalone="no"?>
<!DOCTYPE svg PUBLIC "-//W3C//DTD SVG 1.1//EN"
 "http://www.w3.org/Graphics/SVG/1.1/DTD/svg11.dtd">
<!-- Generated by graphviz version 14.1.4 (0)
 -->
<!-- Title: dependency&#45;cruiser output Pages: 1 -->
<svg width="644pt" height="461pt"
 viewBox="0.00 0.00 644.00 461.00" xmlns="http://www.w3.org/2000/svg" xmlns:xlink="http://www.w3.org/1999/xlink">
<g id="graph0" class="graph" transform="scale(1 1) rotate(0) translate(4 457.38)">
<title>dependency&#45;cruiser output</title>
<polygon fill="white" stroke="none" points="-4,4 -4,-457.38 639.75,-457.38 639.75,4 -4,4"/>
<g id="clust1" class="cluster">
<title>cluster_src</title>
<path fill="#ffffff" stroke="black" stroke-width="2" d="M20,-38.38C20,-38.38 615.75,-38.38 615.75,-38.38 621.75,-38.38 627.75,-44.38 627.75,-50.38 627.75,-50.38 627.75,-433.38 627.75,-433.38 627.75,-439.38 621.75,-445.38 615.75,-445.38 615.75,-445.38 20,-445.38 20,-445.38 14,-445.38 8,-439.38 8,-433.38 8,-433.38 8,-50.38 8,-50.38 8,-44.38 14,-38.38 20,-38.38"/>
<text xml:space="preserve" text-anchor="middle" x="317.88" y="-432.83" font-family="Helvetica,sans-Serif" font-weight="bold" font-size="9.00">src</text>
</g>
<g id="clust2" class="cluster">
<title>cluster_src/components</title>
<path fill="#ffffff" stroke="black" stroke-width="2" d="M269.75,-172.38C269.75,-172.38 545.75,-172.38 545.75,-172.38 551.75,-172.38 557.75,-178.38 557.75,-184.38 557.75,-184.38 557.75,-308.38 557.75,-308.38 557.75,-314.38 551.75,-320.38 545.75,-320.38 545.75,-320.38 269.75,-320.38 269.75,-320.38 263.75,-320.38 257.75,-314.38 257.75,-308.38 257.75,-308.38 257.75,-184.38 257.75,-184.38 257.75,-178.38 263.75,-172.38 269.75,-172.38"/>
<text xml:space="preserve" text-anchor="middle" x="407.75" y="-307.83" font-family="Helvetica,sans-Serif" font-weight="bold" font-size="9.00">components</text>
</g>
<g id="clust3" class="cluster">
<title>cluster_src/pages</title>
<path fill="#ffffff" stroke="black" stroke-width="2" d="M148.75,-167.38C148.75,-167.38 237.75,-167.38 237.75,-167.38 243.75,-167.38 249.75,-173.38 249.75,-179.38 249.75,-179.38 249.75,-303.38 249.75,-303.38 249.75,-309.38 243.75,-315.38 237.75,-315.38 237.75,-315.38 148.75,-315.38 148.75,-315.38 142.75,-315.38 136.75,-309.38 136.75,-303.38 136.75,-303.38 136.75,-179.38 136.75,-179.38 136.75,-173.38 142.75,-167.38 148.75,-167.38"/>
<text xml:space="preserve" text-anchor="middle" x="193.25" y="-302.83" font-family="Helvetica,sans-Serif" font-weight="bold" font-size="9.00">pages</text>
</g>
<!-- src/api.ts -->
<g id="node1" class="node">
<title>src/api.ts</title>
<g id="a_node1"><a xlink:href="src/api.ts" xlink:title="api.ts">
<path fill="#ddfeff" stroke="black" d="M533.83,-164C533.83,-164 492.67,-164 492.67,-164 489.46,-164 486.25,-160.8 486.25,-157.59 486.25,-157.59 486.25,-151.17 486.25,-151.17 486.25,-147.96 489.46,-144.75 492.67,-144.75 492.67,-144.75 533.83,-144.75 533.83,-144.75 537.04,-144.75 540.25,-147.96 540.25,-151.17 540.25,-151.17 540.25,-157.59 540.25,-157.59 540.25,-160.8 537.04,-164 533.83,-164"/>
<text xml:space="preserve" text-anchor="start" x="500.88" y="-151" font-family="Helvetica,sans-Serif" font-size="9.00">api.ts</text>
</a>
</g>
</g>
<!-- src/types.ts -->
<g id="node2" class="node">
<title>src/types.ts</title>
<g id="a_node2"><a xlink:href="src/types.ts" xlink:title="types.ts">
<path fill="#ddfeff" stroke="black" d="M613.33,-200C613.33,-200 572.17,-200 572.17,-200 568.96,-200 565.75,-196.8 565.75,-193.59 565.75,-193.59 565.75,-187.17 565.75,-187.17 565.75,-183.96 568.96,-180.75 572.17,-180.75 572.17,-180.75 613.33,-180.75 613.33,-180.75 616.54,-180.75 619.75,-183.96 619.75,-187.17 619.75,-187.17 619.75,-193.59 619.75,-193.59 619.75,-196.8 616.54,-200 613.33,-200"/>
<text xml:space="preserve" text-anchor="start" x="574.75" y="-187" font-family="Helvetica,sans-Serif" font-size="9.00">types.ts</text>
</a>
</g>
</g>
<!-- src/api.ts&#45;&gt;src/types.ts -->
<g id="edge1" class="edge">
<title>src/api.ts&#45;&gt;src/types.ts</title>
<path fill="none" stroke="#000000" stroke-opacity="0.200000" d="M540.39,-162.34C546.2,-164.4 552.26,-166.78 557.75,-169.38 562.21,-171.5 566.83,-174.06 571.16,-176.66"/>
<polygon fill="none" stroke="#000000" stroke-opacity="0.200000" points="569.76,-178.26 575.97,-179.64 571.98,-174.7 569.76,-178.26"/>
</g>
<!-- src/components/board&#45;notes.ts -->
<g id="node3" class="node">
<title>src/components/board&#45;notes.ts</title>
<g id="a_node3"><a xlink:href="src/components/board-notes.ts" xlink:title="board&#45;notes.ts">
<path fill="#ddfeff" stroke="black" d="M349.21,-231C349.21,-231 280.79,-231 280.79,-231 277.58,-231 274.38,-227.8 274.38,-224.59 274.38,-224.59 274.38,-218.17 274.38,-218.17 274.38,-214.96 277.58,-211.75 280.79,-211.75 280.79,-211.75 349.21,-211.75 349.21,-211.75 352.42,-211.75 355.62,-214.96 355.62,-218.17 355.62,-218.17 355.62,-224.59 355.62,-224.59 355.62,-227.8 352.42,-231 349.21,-231"/>
<text xml:space="preserve" text-anchor="start" x="282.38" y="-218" font-family="Helvetica,sans-Serif" font-size="9.00">board&#45;notes.ts</text>
</a>
</g>
</g>
<!-- src/components/board&#45;notes.ts&#45;&gt;src/api.ts -->
<g id="edge2" class="edge">
<title>src/components/board&#45;notes.ts&#45;&gt;src/api.ts</title>
<path fill="none" stroke="#000000" stroke-width="2" stroke-opacity="0.200000" d="M352.56,-211.32C356.57,-209.83 360.54,-208.18 364.25,-206.38 370.57,-203.3 370.82,-200.22 377.25,-197.38 413.34,-181.42 427.25,-192.36 463.75,-177.38 470.03,-174.8 470.72,-172.49 476.75,-169.38 477.58,-168.95 478.43,-168.52 479.29,-168.1"/>
<polygon fill="#000000" fill-opacity="0.200000" stroke="#000000" stroke-width="2" stroke-opacity="0.200000" points="479.92,-170.12 484.46,-165.68 478.14,-166.32 479.92,-170.12"/>
</g>
<!-- src/components/board&#45;notes.ts&#45;&gt;src/types.ts -->
<g id="edge4" class="edge">
<title>src/components/board&#45;notes.ts&#45;&gt;src/types.ts</title>
<path fill="none" stroke="#000000" stroke-opacity="0.200000" d="M355.91,-215.68C388.4,-211.15 435.48,-204.87 476.75,-200.38 504.14,-197.4 535.27,-194.74 558.23,-192.91"/>
<polygon fill="none" stroke="#000000" stroke-opacity="0.200000" points="558.36,-195.01 564.18,-192.44 558.03,-190.82 558.36,-195.01"/>
</g>
<!-- src/icons.ts -->
<g id="node4" class="node">
<title>src/icons.ts</title>
<g id="a_node4"><a xlink:href="src/icons.ts" xlink:title="icons.ts">
<path fill="#ddfeff" stroke="black" d="M613.33,-330C613.33,-330 572.17,-330 572.17,-330 568.96,-330 565.75,-326.8 565.75,-323.59 565.75,-323.59 565.75,-317.17 565.75,-317.17 565.75,-313.96 568.96,-310.75 572.17,-310.75 572.17,-310.75 613.33,-310.75 613.33,-310.75 616.54,-310.75 619.75,-313.96 619.75,-317.17 619.75,-317.17 619.75,-323.59 619.75,-323.59 619.75,-326.8 616.54,-330 613.33,-330"/>
<text xml:space="preserve" text-anchor="start" x="575.5" y="-317" font-family="Helvetica,sans-Serif" font-size="9.00">icons.ts</text>
</a>
</g>
</g>
<!-- src/components/board&#45;notes.ts&#45;&gt;src/icons.ts -->
<g id="edge3" class="edge">
<title>src/components/board&#45;notes.ts&#45;&gt;src/icons.ts</title>
<path fill="none" stroke="#000000" stroke-width="2" stroke-opacity="0.200000" d="M356.05,-229.84C359.09,-231.63 361.89,-233.78 364.25,-236.38 383.45,-257.56 355.99,-280.26 377.25,-299.38 378.9,-300.86 495.96,-311.68 556.43,-317.19"/>
<polygon fill="#000000" fill-opacity="0.200000" stroke="#000000" stroke-width="2" stroke-opacity="0.200000" points="556.09,-319.26 562.26,-317.72 556.47,-315.08 556.09,-319.26"/>
</g>
<!-- src/components/feedback&#45;dialog.ts -->
<g id="node5" class="node">
<title>src/components/feedback&#45;dialog.ts</title>
<g id="a_node5"><a xlink:href="src/components/feedback-dialog.ts" xlink:title="feedback&#45;dialog.ts">
<path fill="#ddfeff" stroke="black" d="M357.83,-200C357.83,-200 272.17,-200 272.17,-200 268.96,-200 265.75,-196.8 265.75,-193.59 265.75,-193.59 265.75,-187.17 265.75,-187.17 265.75,-183.96 268.96,-180.75 272.17,-180.75 272.17,-180.75 357.83,-180.75 357.83,-180.75 361.04,-180.75 364.25,-183.96 364.25,-187.17 364.25,-187.17 364.25,-193.59 364.25,-193.59 364.25,-196.8 361.04,-200 357.83,-200"/>
<text xml:space="preserve" text-anchor="start" x="273.75" y="-187" font-family="Helvetica,sans-Serif" font-size="9.00">feedback&#45;dialog.ts</text>
</a>
</g>
</g>
<!-- src/components/feedback&#45;dialog.ts&#45;&gt;src/api.ts -->
<g id="edge5" class="edge">
<title>src/components/feedback&#45;dialog.ts&#45;&gt;src/api.ts</title>
<path fill="none" stroke="#000000" stroke-width="2" stroke-opacity="0.200000" d="M364.42,-183.53C393.36,-179.19 430.78,-173.12 463.75,-166.38 468.15,-165.48 472.76,-164.45 477.31,-163.38"/>
<polygon fill="#000000" fill-opacity="0.200000" stroke="#000000" stroke-width="2" stroke-opacity="0.200000" points="477.63,-165.47 482.97,-162.02 476.64,-161.38 477.63,-165.47"/>
</g>
<!-- src/storage.ts -->
<g id="node6" class="node">
<title>src/storage.ts</title>
<g id="a_node6"><a xlink:href="src/storage.ts" xlink:title="storage.ts">
<path fill="#ddfeff" stroke="black" d="M444.58,-160C444.58,-160 396.42,-160 396.42,-160 393.21,-160 390,-156.8 390,-153.59 390,-153.59 390,-147.17 390,-147.17 390,-143.96 393.21,-140.75 396.42,-140.75 396.42,-140.75 444.58,-140.75 444.58,-140.75 447.79,-140.75 451,-143.96 451,-147.17 451,-147.17 451,-153.59 451,-153.59 451,-156.8 447.79,-160 444.58,-160"/>
<text xml:space="preserve" text-anchor="start" x="398" y="-147" font-family="Helvetica,sans-Serif" font-size="9.00">storage.ts</text>
</a>
</g>
</g>
<!-- src/components/feedback&#45;dialog.ts&#45;&gt;src/storage.ts -->
<g id="edge6" class="edge">
<title>src/components/feedback&#45;dialog.ts&#45;&gt;src/storage.ts</title>
<path fill="none" stroke="#000000" stroke-width="2" stroke-opacity="0.200000" d="M353.67,-180.29C357.28,-179.07 360.86,-177.77 364.25,-176.38 370.32,-173.89 371.36,-172.28 377.25,-169.38 380.84,-167.61 384.62,-165.81 388.4,-164.06"/>
<polygon fill="#000000" fill-opacity="0.200000" stroke="#000000" stroke-width="2" stroke-opacity="0.200000" points="389.22,-166 393.8,-161.59 387.47,-162.17 389.22,-166"/>
</g>
<!-- src/components/retro&#45;board.ts -->
<g id="node7" class="node">
<title>src/components/retro&#45;board.ts</title>
<g id="a_node7"><a xlink:href="src/components/retro-board.ts" xlink:title="retro&#45;board.ts">
<path fill="#ddfeff" stroke="black" d="M348.08,-293C348.08,-293 281.92,-293 281.92,-293 278.71,-293 275.5,-289.8 275.5,-286.59 275.5,-286.59 275.5,-280.17 275.5,-280.17 275.5,-276.96 278.71,-273.75 281.92,-273.75 281.92,-273.75 348.08,-273.75 348.08,-273.75 351.29,-273.75 354.5,-276.96 354.5,-280.17 354.5,-280.17 354.5,-286.59 354.5,-286.59 354.5,-289.8 351.29,-293 348.08,-293"/>
<text xml:space="preserve" text-anchor="start" x="283.5" y="-280" font-family="Helvetica,sans-Serif" font-size="9.00">retro&#45;board.ts</text>
</a>
</g>
</g>
<!-- src/components/retro&#45;board.ts&#45;&gt;src/api.ts -->
<g id="edge7" class="edge">
<title>src/components/retro&#45;board.ts&#45;&gt;src/api.ts</title>
<path fill="none" stroke="#000000" stroke-width="2" stroke-opacity="0.200000" d="M354.87,-275.19C358.32,-273.36 361.53,-271.12 364.25,-268.38 378.31,-254.21 363.71,-240.06 377.25,-225.38 405.25,-195.01 432.31,-218.17 463.75,-191.38 472.39,-184.01 468.2,-176.85 476.75,-169.38 477.26,-168.93 477.79,-168.5 478.32,-168.08"/>
<polygon fill="#000000" fill-opacity="0.200000" stroke="#000000" stroke-width="2" stroke-opacity="0.200000" points="479.44,-169.86 483.35,-164.85 477.17,-166.32 479.44,-169.86"/>
</g>
<!-- src/components/retro&#45;board.ts&#45;&gt;src/types.ts -->
<g id="edge10" class="edge">
<title>src/components/retro&#45;board.ts&#45;&gt;src/types.ts</title>
<path fill="none" stroke="#000000" stroke-opacity="0.200000" d="M354.62,-274.93C358.12,-273.15 361.41,-270.99 364.25,-268.38 375.55,-257.99 365.76,-246.56 377.25,-236.38 381.54,-232.58 471.13,-210.48 476.75,-209.38 512.34,-202.39 522.13,-206.26 557.75,-199.38 557.91,-199.35 558.07,-199.32 558.22,-199.29"/>
<polygon fill="none" stroke="#000000" stroke-opacity="0.200000" points="558.58,-201.36 563.99,-198.03 557.69,-197.25 558.58,-201.36"/>
</g>
<!-- src/components/retro&#45;board.ts&#45;&gt;src/icons.ts -->
<g id="edge8" class="edge">
<title>src/components/retro&#45;board.ts&#45;&gt;src/icons.ts</title>
<path fill="none" stroke="#000000" stroke-width="2" stroke-opacity="0.200000" d="M354.92,-291.41C358.28,-293.05 361.45,-295.01 364.25,-297.38 374.42,-305.98 365.97,-317.29 377.25,-324.38 406.17,-342.55 503.73,-332.63 556.75,-325.55"/>
<polygon fill="#000000" fill-opacity="0.200000" stroke="#000000" stroke-width="2" stroke-opacity="0.200000" points="556.82,-327.66 562.48,-324.76 556.25,-323.5 556.82,-327.66"/>
</g>
<!-- src/components/retro&#45;board.ts&#45;&gt;src/storage.ts -->
<g id="edge9" class="edge">
<title>src/components/retro&#45;board.ts&#45;&gt;src/storage.ts</title>
<path fill="none" stroke="#000000" stroke-width="2" stroke-opacity="0.200000" d="M354.89,-275.89C358.43,-273.93 361.65,-271.46 364.25,-268.38 392.84,-234.44 350.77,-204.99 377.25,-169.38 378.78,-167.32 380.58,-165.48 382.57,-163.84"/>
<polygon fill="#000000" fill-opacity="0.200000" stroke="#000000" stroke-width="2" stroke-opacity="0.200000" points="383.54,-165.72 387.37,-160.65 381.21,-162.22 383.54,-165.72"/>
</g>
<!-- src/components/retro&#45;column.ts -->
<g id="node8" class="node">
<title>src/components/retro&#45;column.ts</title>
<g id="a_node8"><a xlink:href="src/components/retro-column.ts" xlink:title="retro&#45;column.ts">
<path fill="#ddfeff" stroke="black" d="M457.33,-293C457.33,-293 383.67,-293 383.67,-293 380.46,-293 377.25,-289.8 377.25,-286.59 377.25,-286.59 377.25,-280.17 377.25,-280.17 377.25,-276.96 380.46,-273.75 383.67,-273.75 383.67,-273.75 457.33,-273.75 457.33,-273.75 460.54,-273.75 463.75,-276.96 463.75,-280.17 463.75,-280.17 463.75,-286.59 463.75,-286.59 463.75,-289.8 460.54,-293 457.33,-293"/>
<text xml:space="preserve" text-anchor="start" x="385.25" y="-280" font-family="Helvetica,sans-Serif" font-size="9.00">retro&#45;column.ts</text>
</a>
</g>
</g>
<!-- src/components/retro&#45;board.ts&#45;&gt;src/components/retro&#45;column.ts -->
<g id="edge11" class="edge">
<title>src/components/retro&#45;board.ts&#45;&gt;src/components/retro&#45;column.ts</title>
<path fill="none" stroke="#000000" stroke-width="2" stroke-opacity="0.200000" d="M354.83,-283.38C359.13,-283.38 363.54,-283.38 367.96,-283.38"/>
<polygon fill="#000000" fill-opacity="0.200000" stroke="#000000" stroke-width="2" stroke-opacity="0.200000" points="367.95,-285.48 373.95,-283.38 367.95,-281.28 367.95,-285.48"/>
</g>
<!-- src/components/retro&#45;timer.ts -->
<g id="node9" class="node">
<title>src/components/retro&#45;timer.ts</title>
<g id="a_node9"><a xlink:href="src/components/retro-timer.ts" xlink:title="retro&#45;timer.ts">
<path fill="#ddfeff" stroke="black" d="M452.08,-262C452.08,-262 388.92,-262 388.92,-262 385.71,-262 382.5,-258.8 382.5,-255.59 382.5,-255.59 382.5,-249.17 382.5,-249.17 382.5,-245.96 385.71,-242.75 388.92,-242.75 388.92,-242.75 452.08,-242.75 452.08,-242.75 455.29,-242.75 458.5,-245.96 458.5,-249.17 458.5,-249.17 458.5,-255.59 458.5,-255.59 458.5,-258.8 455.29,-262 452.08,-262"/>
<text xml:space="preserve" text-anchor="start" x="390.5" y="-249" font-family="Helvetica,sans-Serif" font-size="9.00">retro&#45;timer.ts</text>
</a>
</g>
</g>
<!-- src/components/retro&#45;board.ts&#45;&gt;src/components/retro&#45;timer.ts -->
<g id="edge12" class="edge">
<title>src/components/retro&#45;board.ts&#45;&gt;src/components/retro&#45;timer.ts</title>
<path fill="none" stroke="#000000" stroke-width="2" stroke-opacity="0.200000" d="M349.6,-273.31C358.37,-270.69 367.93,-267.82 377.09,-265.08"/>
<polygon fill="#000000" fill-opacity="0.200000" stroke="#000000" stroke-width="2" stroke-opacity="0.200000" points="377.67,-267.1 382.81,-263.37 376.46,-263.08 377.67,-267.1"/>
</g>
<!-- src/components/retro&#45;column.ts&#45;&gt;src/types.ts -->
<g id="edge16" class="edge">
<title>src/components/retro&#45;column.ts&#45;&gt;src/types.ts</title>
<path fill="none" stroke="#000000" stroke-opacity="0.200000" d="M454.48,-273.32C457.71,-271.85 460.85,-270.21 463.75,-268.38 470.66,-264.02 469.94,-259.9 476.75,-255.38 509.13,-233.88 525.04,-243.39 557.75,-222.38 565.06,-217.68 572.21,-211.31 578.05,-205.49"/>
<polygon fill="none" stroke="#000000" stroke-opacity="0.200000" points="579.3,-207.22 581.96,-201.44 576.28,-204.3 579.3,-207.22"/>
</g>
<!-- src/components/retro&#45;column.ts&#45;&gt;src/icons.ts -->
<g id="edge15" class="edge">
<title>src/components/retro&#45;column.ts&#45;&gt;src/icons.ts</title>
<path fill="none" stroke="#000000" stroke-width="2" stroke-opacity="0.200000" d="M450.7,-273.26C459.01,-270.84 468.15,-268.6 476.75,-267.38 512.39,-262.32 526.16,-250.11 557.75,-267.38 571.18,-274.72 580.09,-289.88 585.41,-302.12"/>
<polygon fill="#000000" fill-opacity="0.200000" stroke="#000000" stroke-width="2" stroke-opacity="0.200000" points="583.39,-302.73 587.55,-307.54 587.3,-301.19 583.39,-302.73"/>
</g>
<!-- src/components/retro&#45;card.ts -->
<g id="node10" class="node">
<title>src/components/retro&#45;card.ts</title>
<g id="a_node10"><a xlink:href="src/components/retro-card.ts" xlink:title="retro&#45;card.ts">
<path fill="#ddfeff" stroke="black" d="M543.33,-293C543.33,-293 483.17,-293 483.17,-293 479.96,-293 476.75,-289.8 476.75,-286.59 476.75,-286.59 476.75,-280.17 476.75,-280.17 476.75,-276.96 479.96,-273.75 483.17,-273.75 483.17,-273.75 543.33,-273.75 543.33,-273.75 546.54,-273.75 549.75,-276.96 549.75,-280.17 549.75,-280.17 549.75,-286.59 549.75,-286.59 549.75,-289.8 546.54,-293 543.33,-293"/>
<text xml:space="preserve" text-anchor="start" x="484.75" y="-280" font-family="Helvetica,sans-Serif" font-size="9.00">retro&#45;card.ts</text>
</a>
</g>
</g>
<!-- src/components/retro&#45;column.ts&#45;&gt;src/components/retro&#45;card.ts -->
<g id="edge17" class="edge">
<title>src/components/retro&#45;column.ts&#45;&gt;src/components/retro&#45;card.ts</title>
<path fill="none" stroke="#000000" stroke-width="2" stroke-opacity="0.200000" d="M464.22,-283.38C465.36,-283.38 466.5,-283.38 467.63,-283.38"/>
<polygon fill="#000000" fill-opacity="0.200000" stroke="#000000" stroke-width="2" stroke-opacity="0.200000" points="467.28,-285.48 473.28,-283.38 467.28,-281.28 467.28,-285.48"/>
</g>
<!-- src/components/retro&#45;timer.ts&#45;&gt;src/api.ts -->
<g id="edge18" class="edge">
<title>src/components/retro&#45;timer.ts&#45;&gt;src/api.ts</title>
<path fill="none" stroke="#000000" stroke-width="2" stroke-opacity="0.200000" d="M458.96,-242.72C460.71,-241.45 462.33,-240.01 463.75,-238.38 484.29,-214.89 457.16,-193.67 476.75,-169.38 477.36,-168.62 478.01,-167.91 478.7,-167.22"/>
<polygon fill="#000000" fill-opacity="0.200000" stroke="#000000" stroke-width="2" stroke-opacity="0.200000" points="479.76,-169.06 483.33,-163.8 477.26,-165.68 479.76,-169.06"/>
</g>
<!-- src/components/retro&#45;timer.ts&#45;&gt;src/types.ts -->
<g id="edge20" class="edge">
<title>src/components/retro&#45;timer.ts&#45;&gt;src/types.ts</title>
<path fill="none" stroke="#000000" stroke-opacity="0.200000" d="M455.15,-242.39C458.11,-241.17 461.02,-239.83 463.75,-238.38 470.19,-234.96 470.18,-231.54 476.75,-228.38 510.16,-212.29 523.1,-221.6 557.75,-208.38 561.25,-207.04 564.85,-205.43 568.33,-203.72"/>
<polygon fill="none" stroke="#000000" stroke-opacity="0.200000" points="569.11,-205.68 573.49,-201.07 567.19,-201.95 569.11,-205.68"/>
</g>
<!-- src/components/retro&#45;timer.ts&#45;&gt;src/icons.ts -->
<g id="edge19" class="edge">
<title>src/components/retro&#45;timer.ts&#45;&gt;src/icons.ts</title>
<path fill="none" stroke="#000000" stroke-width="2" stroke-opacity="0.200000" d="M458.79,-243.52C487.93,-238.76 528.3,-237.1 557.75,-255.38 574.06,-265.5 582.95,-286.23 587.5,-301.58"/>
<polygon fill="#000000" fill-opacity="0.200000" stroke="#000000" stroke-width="2" stroke-opacity="0.200000" points="585.47,-302.1 589.03,-307.36 589.53,-301.02 585.47,-302.1"/>
</g>
<!-- src/components/retro&#45;card.ts&#45;&gt;src/types.ts -->
<g id="edge14" class="edge">
<title>src/components/retro&#45;card.ts&#45;&gt;src/types.ts</title>
<path fill="none" stroke="#000000" stroke-opacity="0.200000" d="M549.88,-274.86C552.73,-273.32 555.4,-271.51 557.75,-269.38 575.83,-252.94 584.69,-225.24 588.73,-207.39"/>
<polygon fill="none" stroke="#000000" stroke-opacity="0.200000" points="590.7,-208.19 589.87,-201.89 586.59,-207.34 590.7,-208.19"/>
</g>
<!-- src/components/retro&#45;card.ts&#45;&gt;src/icons.ts -->
<g id="edge13" class="edge">
<title>src/components/retro&#45;card.ts&#45;&gt;src/icons.ts</title>
<path fill="none" stroke="#000000" stroke-width="2" stroke-opacity="0.200000" d="M548.8,-293.49C551.87,-294.69 554.9,-295.99 557.75,-297.38 562.32,-299.6 566.97,-302.37 571.32,-305.2"/>
<polygon fill="#000000" fill-opacity="0.200000" stroke="#000000" stroke-width="2" stroke-opacity="0.200000" points="570.08,-306.9 576.22,-308.57 572.46,-303.44 570.08,-306.9"/>
</g>
<!-- src/components/session&#45;history.ts -->
<g id="node11" class="node">
<title>src/components/session&#45;history.ts</title>
<g id="a_node11"><a xlink:href="src/components/session-history.ts" xlink:title="session&#45;history.ts">
<path fill="#ddfeff" stroke="black" d="M354.46,-262C354.46,-262 275.54,-262 275.54,-262 272.33,-262 269.12,-258.8 269.12,-255.59 269.12,-255.59 269.12,-249.17 269.12,-249.17 269.12,-245.96 272.33,-242.75 275.54,-242.75 275.54,-242.75 354.46,-242.75 354.46,-242.75 357.67,-242.75 360.88,-245.96 360.88,-249.17 360.88,-249.17 360.88,-255.59 360.88,-255.59 360.88,-258.8 357.67,-262 354.46,-262"/>
<text xml:space="preserve" text-anchor="start" x="277.12" y="-249" font-family="Helvetica,sans-Serif" font-size="9.00">session&#45;history.ts</text>
</a>
</g>
</g>
<!-- src/components/session&#45;history.ts&#45;&gt;src/icons.ts -->
<g id="edge21" class="edge">
<title>src/components/session&#45;history.ts&#45;&gt;src/icons.ts</title>
<path fill="none" stroke="#000000" stroke-width="2" stroke-opacity="0.200000" d="M358.08,-262.44C360.31,-263.87 362.4,-265.51 364.25,-267.38 378.31,-281.55 361.5,-298.11 377.25,-310.38 391.03,-321.12 499.66,-321.49 556.83,-320.92"/>
<polygon fill="#000000" fill-opacity="0.200000" stroke="#000000" stroke-width="2" stroke-opacity="0.200000" points="556.54,-323.02 562.51,-320.86 556.49,-318.82 556.54,-323.02"/>
</g>
<!-- src/components/session&#45;history.ts&#45;&gt;src/storage.ts -->
<g id="edge22" class="edge">
<title>src/components/session&#45;history.ts&#45;&gt;src/storage.ts</title>
<path fill="none" stroke="#000000" stroke-opacity="0.200000" d="M358.32,-242.54C360.49,-241.05 362.5,-239.34 364.25,-237.38 384.75,-214.43 358.18,-193.52 377.25,-169.38 379.1,-167.04 381.3,-164.97 383.72,-163.16"/>
<polygon fill="none" stroke="#000000" stroke-opacity="0.200000" points="384.46,-165.17 388.39,-160.17 382.2,-161.63 384.46,-165.17"/>
</g>
<!-- src/env.d.ts -->
<g id="node12" class="node">
<title>src/env.d.ts</title>
<g id="a_node12"><a xlink:href="src/env.d.ts" xlink:title="env.d.ts">
<path fill="#ccffcc" stroke="black" d="M92.96,-191C92.96,-191 51.79,-191 51.79,-191 48.58,-191 45.38,-187.8 45.38,-184.59 45.38,-184.59 45.38,-178.17 45.38,-178.17 45.38,-174.96 48.58,-171.75 51.79,-171.75 51.79,-171.75 92.96,-171.75 92.96,-171.75 96.17,-171.75 99.38,-174.96 99.38,-178.17 99.38,-178.17 99.38,-184.59 99.38,-184.59 99.38,-187.8 96.17,-191 92.96,-191"/>
<text xml:space="preserve" text-anchor="start" x="54.38" y="-178" font-family="Helvetica,sans-Serif" font-size="9.00">env.d.ts</text>
</a>
</g>
</g>
<!-- src/main.ts -->
<g id="node13" class="node">
<title>src/main.ts</title>
<g id="a_node13"><a xlink:href="src/main.ts" xlink:title="main.ts">
<path fill="#ddfeff" stroke="black" d="M92.96,-343C92.96,-343 51.79,-343 51.79,-343 48.58,-343 45.38,-339.8 45.38,-336.59 45.38,-336.59 45.38,-330.17 45.38,-330.17 45.38,-326.96 48.58,-323.75 51.79,-323.75 51.79,-323.75 92.96,-323.75 92.96,-323.75 96.17,-323.75 99.38,-326.96 99.38,-330.17 99.38,-330.17 99.38,-336.59 99.38,-336.59 99.38,-339.8 96.17,-343 92.96,-343"/>
<text xml:space="preserve" text-anchor="start" x="55.5" y="-330" font-family="Helvetica,sans-Serif" font-size="9.00">main.ts</text>
</a>
</g>
</g>
<!-- src/main.ts&#45;&gt;src/components/retro&#45;board.ts -->
<g id="edge23" class="edge">
<title>src/main.ts&#45;&gt;src/components/retro&#45;board.ts</title>
<path fill="none" stroke="#000000" stroke-width="2" stroke-opacity="0.200000" d="M99.62,-341.55C110.92,-344.67 124.36,-347.84 136.75,-349.38 161.67,-352.48 230.69,-365.73 249.75,-349.38 267.5,-334.15 241.99,-314.65 257.75,-297.38 260.34,-294.54 263.42,-292.23 266.77,-290.36"/>
<polygon fill="#000000" fill-opacity="0.200000" stroke="#000000" stroke-width="2" stroke-opacity="0.200000" points="267.58,-292.3 272.24,-287.97 265.9,-288.45 267.58,-292.3"/>
</g>
<!-- src/main.ts&#45;&gt;src/components/retro&#45;column.ts -->
<g id="edge25" class="edge">
<title>src/main.ts&#45;&gt;src/components/retro&#45;column.ts</title>
<path fill="none" stroke="#000000" stroke-width="2" stroke-opacity="0.200000" d="M87.19,-343.45C99.53,-351.89 118.44,-363.48 136.75,-369.38 184.95,-384.91 325.83,-415.37 364.25,-382.38 391.21,-359.23 357.96,-330.89 376.47,-300.25"/>
<polygon fill="#000000" fill-opacity="0.200000" stroke="#000000" stroke-width="2" stroke-opacity="0.200000" points="377.96,-301.78 379.82,-295.7 374.57,-299.29 377.96,-301.78"/>
</g>
<!-- src/main.ts&#45;&gt;src/components/retro&#45;card.ts -->
<g id="edge24" class="edge">
<title>src/main.ts&#45;&gt;src/components/retro&#45;card.ts</title>
<path fill="none" stroke="#000000" stroke-width="2" stroke-opacity="0.200000" d="M91.25,-343.37C102.85,-350.45 117.8,-360.73 128.75,-372.38 133.4,-377.32 130.94,-381.88 136.75,-385.38 223.39,-437.62 269.32,-428.38 364.25,-393.38 423.39,-371.57 420.75,-334.44 476.78,-298.03"/>
<polygon fill="#000000" fill-opacity="0.200000" stroke="#000000" stroke-width="2" stroke-opacity="0.200000" points="477.74,-299.91 481.73,-294.96 475.53,-296.34 477.74,-299.91"/>
</g>
<!-- src/pages/home&#45;page.ts -->
<g id="node14" class="node">
<title>src/pages/home&#45;page.ts</title>
<g id="a_node14"><a xlink:href="src/pages/home-page.ts" xlink:title="home&#45;page.ts">
<path fill="#ddfeff" stroke="black" d="M225.96,-257C225.96,-257 160.54,-257 160.54,-257 157.33,-257 154.12,-253.8 154.12,-250.59 154.12,-250.59 154.12,-244.17 154.12,-244.17 154.12,-240.96 157.33,-237.75 160.54,-237.75 160.54,-237.75 225.96,-237.75 225.96,-237.75 229.17,-237.75 232.38,-240.96 232.38,-244.17 232.38,-244.17 232.38,-250.59 232.38,-250.59 232.38,-253.8 229.17,-257 225.96,-257"/>
<text xml:space="preserve" text-anchor="start" x="162.12" y="-244" font-family="Helvetica,sans-Serif" font-size="9.00">home&#45;page.ts</text>
</a>
</g>
</g>
<!-- src/main.ts&#45;&gt;src/pages/home&#45;page.ts -->
<g id="edge26" class="edge">
<title>src/main.ts&#45;&gt;src/pages/home&#45;page.ts</title>
<path fill="none" stroke="#000000" stroke-width="2" stroke-opacity="0.200000" d="M79.46,-323.48C89.46,-308.04 110.88,-278.35 136.75,-262.38 139.5,-260.68 142.45,-259.17 145.49,-257.83"/>
<polygon fill="#000000" fill-opacity="0.200000" stroke="#000000" stroke-width="2" stroke-opacity="0.200000" points="146.05,-259.87 150.89,-255.75 144.54,-255.95 146.05,-259.87"/>
</g>
<!-- src/pages/not&#45;found&#45;page.ts -->
<g id="node15" class="node">
<title>src/pages/not&#45;found&#45;page.ts</title>
<g id="a_node15"><a xlink:href="src/pages/not-found-page.ts" xlink:title="not&#45;found&#45;page.ts">
<path fill="#ddfeff" stroke="black" d="M235.33,-288C235.33,-288 151.17,-288 151.17,-288 147.96,-288 144.75,-284.8 144.75,-281.59 144.75,-281.59 144.75,-275.17 144.75,-275.17 144.75,-271.96 147.96,-268.75 151.17,-268.75 151.17,-268.75 235.33,-268.75 235.33,-268.75 238.54,-268.75 241.75,-271.96 241.75,-275.17 241.75,-275.17 241.75,-281.59 241.75,-281.59 241.75,-284.8 238.54,-288 235.33,-288"/>
<text xml:space="preserve" text-anchor="start" x="152.75" y="-275" font-family="Helvetica,sans-Serif" font-size="9.00">not&#45;found&#45;page.ts</text>
</a>
</g>
</g>
<!-- src/main.ts&#45;&gt;src/pages/not&#45;found&#45;page.ts -->
<g id="edge27" class="edge">
<title>src/main.ts&#45;&gt;src/pages/not&#45;found&#45;page.ts</title>
<path fill="none" stroke="#000000" stroke-width="2" stroke-opacity="0.200000" d="M85.78,-323.59C98.07,-314.32 117.77,-300.64 136.75,-292.38 137.36,-292.11 137.99,-291.85 138.61,-291.59"/>
<polygon fill="#000000" fill-opacity="0.200000" stroke="#000000" stroke-width="2" stroke-opacity="0.200000" points="139.28,-293.58 144.16,-289.52 137.81,-289.65 139.28,-293.58"/>
</g>
<!-- src/pages/session&#45;page.ts -->
<g id="node16" class="node">
<title>src/pages/session&#45;page.ts</title>
<g id="a_node16"><a xlink:href="src/pages/session-page.ts" xlink:title="session&#45;page.ts">
<path fill="#ddfeff" stroke="black" d="M229.33,-226C229.33,-226 157.17,-226 157.17,-226 153.96,-226 150.75,-222.8 150.75,-219.59 150.75,-219.59 150.75,-213.17 150.75,-213.17 150.75,-209.96 153.96,-206.75 157.17,-206.75 157.17,-206.75 229.33,-206.75 229.33,-206.75 232.54,-206.75 235.75,-209.96 235.75,-213.17 235.75,-213.17 235.75,-219.59 235.75,-219.59 235.75,-222.8 232.54,-226 229.33,-226"/>
<text xml:space="preserve" text-anchor="start" x="158.75" y="-213" font-family="Helvetica,sans-Serif" font-size="9.00">session&#45;page.ts</text>
</a>
</g>
</g>
<!-- src/main.ts&#45;&gt;src/pages/session&#45;page.ts -->
<g id="edge28" class="edge">
<title>src/main.ts&#45;&gt;src/pages/session&#45;page.ts</title>
<path fill="none" stroke="#000000" stroke-width="2" stroke-opacity="0.200000" d="M76.67,-323.53C84.03,-303.08 103.79,-255.89 136.75,-231.38 138.54,-230.05 140.43,-228.84 142.41,-227.73"/>
<polygon fill="#000000" fill-opacity="0.200000" stroke="#000000" stroke-width="2" stroke-opacity="0.200000" points="143.07,-229.74 147.6,-225.28 141.28,-225.95 143.07,-229.74"/>
</g>
<!-- src/pages/stats&#45;page.ts -->
<g id="node17" class="node">
<title>src/pages/stats&#45;page.ts</title>
<g id="a_node17"><a xlink:href="src/pages/stats-page.ts" xlink:title="stats&#45;page.ts">
<path fill="#ddfeff" stroke="black" d="M224.08,-195C224.08,-195 162.42,-195 162.42,-195 159.21,-195 156,-191.8 156,-188.59 156,-188.59 156,-182.17 156,-182.17 156,-178.96 159.21,-175.75 162.42,-175.75 162.42,-175.75 224.08,-175.75 224.08,-175.75 227.29,-175.75 230.5,-178.96 230.5,-182.17 230.5,-182.17 230.5,-188.59 230.5,-188.59 230.5,-191.8 227.29,-195 224.08,-195"/>
<text xml:space="preserve" text-anchor="start" x="164" y="-182" font-family="Helvetica,sans-Serif" font-size="9.00">stats&#45;page.ts</text>
</a>
</g>
</g>
<!-- src/main.ts&#45;&gt;src/pages/stats&#45;page.ts -->
<g id="edge29" class="edge">
<title>src/main.ts&#45;&gt;src/pages/stats&#45;page.ts</title>
<path fill="none" stroke="#000000" stroke-width="2" stroke-opacity="0.200000" d="M75.2,-323.28C80.23,-298.41 96.68,-233.79 136.75,-200.38 139.98,-197.68 143.65,-195.47 147.53,-193.65"/>
<polygon fill="#000000" fill-opacity="0.200000" stroke="#000000" stroke-width="2" stroke-opacity="0.200000" points="148.08,-195.69 152.9,-191.55 146.54,-191.78 148.08,-195.69"/>
</g>
<!-- src/router.ts -->
<g id="node18" class="node">
<title>src/router.ts</title>
<g id="a_node18"><a xlink:href="src/router.ts" xlink:title="router.ts">
<path fill="#ddfeff" stroke="black" d="M213.96,-343C213.96,-343 172.54,-343 172.54,-343 169.33,-343 166.12,-339.8 166.12,-336.59 166.12,-336.59 166.12,-330.17 166.12,-330.17 166.12,-326.96 169.33,-323.75 172.54,-323.75 172.54,-323.75 213.96,-323.75 213.96,-323.75 217.17,-323.75 220.38,-326.96 220.38,-330.17 220.38,-330.17 220.38,-336.59 220.38,-336.59 220.38,-339.8 217.17,-343 213.96,-343"/>
<text xml:space="preserve" text-anchor="start" x="174.12" y="-330" font-family="Helvetica,sans-Serif" font-size="9.00">router.ts</text>
</a>
</g>
</g>
<!-- src/main.ts&#45;&gt;src/router.ts -->
<g id="edge30" class="edge">
<title>src/main.ts&#45;&gt;src/router.ts</title>
<path fill="none" stroke="#000000" stroke-width="2" stroke-opacity="0.200000" d="M99.76,-333.38C116.61,-333.38 138.66,-333.38 157,-333.38"/>
<polygon fill="#000000" fill-opacity="0.200000" stroke="#000000" stroke-width="2" stroke-opacity="0.200000" points="156.91,-335.48 162.91,-333.38 156.91,-331.28 156.91,-335.48"/>
</g>
<!-- src/theme.ts -->
<g id="node19" class="node">
<title>src/theme.ts</title>
<g id="a_node19"><a xlink:href="src/theme.ts" xlink:title="theme.ts">
<path fill="#ddfeff" stroke="black" d="M336.83,-376C336.83,-376 293.17,-376 293.17,-376 289.96,-376 286.75,-372.8 286.75,-369.59 286.75,-369.59 286.75,-363.17 286.75,-363.17 286.75,-359.96 289.96,-356.75 293.17,-356.75 293.17,-356.75 336.83,-356.75 336.83,-356.75 340.04,-356.75 343.25,-359.96 343.25,-363.17 343.25,-363.17 343.25,-369.59 343.25,-369.59 343.25,-372.8 340.04,-376 336.83,-376"/>
<text xml:space="preserve" text-anchor="start" x="294.75" y="-363" font-family="Helvetica,sans-Serif" font-size="9.00">theme.ts</text>
</a>
</g>
</g>
<!-- src/main.ts&#45;&gt;src/theme.ts -->
<g id="edge31" class="edge">
<title>src/main.ts&#45;&gt;src/theme.ts</title>
<path fill="none" stroke="#000000" stroke-width="2" stroke-opacity="0.200000" d="M91.9,-343.43C104.23,-349.56 120.99,-356.88 136.75,-360.38 184.55,-370.98 241.36,-370.73 277.54,-369.01"/>
<polygon fill="#000000" fill-opacity="0.200000" stroke="#000000" stroke-width="2" stroke-opacity="0.200000" points="277.38,-371.12 283.26,-368.71 277.15,-366.93 277.38,-371.12"/>
</g>
<!-- src/pages/home&#45;page.ts&#45;&gt;src/api.ts -->
<g id="edge32" class="edge">
<title>src/pages/home&#45;page.ts&#45;&gt;src/api.ts</title>
<path fill="none" stroke="#000000" stroke-width="2" stroke-opacity="0.200000" d="M232.69,-243.46C239.2,-241.13 245.29,-237.63 249.75,-232.38 261.04,-219.1 245.83,-167.09 257.75,-154.38 294.6,-115.11 323.59,-138.84 377.25,-134.38 415.56,-131.19 426.04,-126.91 463.75,-134.38 470.79,-135.77 478.08,-138.2 484.81,-140.9"/>
<polygon fill="#000000" fill-opacity="0.200000" stroke="#000000" stroke-width="2" stroke-opacity="0.200000" points="483.85,-142.77 490.19,-143.2 485.51,-138.91 483.85,-142.77"/>
</g>
<!-- src/pages/home&#45;page.ts&#45;&gt;src/icons.ts -->
<g id="edge34" class="edge">
<title>src/pages/home&#45;page.ts&#45;&gt;src/icons.ts</title>
<path fill="none" stroke="#000000" stroke-width="2" stroke-opacity="0.200000" d="M232.84,-251.17C239.34,-253.51 245.38,-257.05 249.75,-262.38 266.69,-283.05 238.23,-364.12 257.75,-382.38 282.07,-405.13 492.99,-418.57 557.75,-380.38 572.98,-371.4 581.95,-352.82 586.82,-338.7"/>
<polygon fill="#000000" fill-opacity="0.200000" stroke="#000000" stroke-width="2" stroke-opacity="0.200000" points="588.78,-339.45 588.55,-333.1 584.77,-338.21 588.78,-339.45"/>
</g>
<!-- src/pages/home&#45;page.ts&#45;&gt;src/storage.ts -->
<g id="edge35" class="edge">
<title>src/pages/home&#45;page.ts&#45;&gt;src/storage.ts</title>
<path fill="none" stroke="#000000" stroke-width="2" stroke-opacity="0.200000" d="M232.87,-243.27C239.29,-240.95 245.29,-237.5 249.75,-232.38 268.29,-211.1 237.7,-189.24 257.75,-169.38 266.35,-160.86 335.79,-155.24 380.85,-152.45"/>
<polygon fill="#000000" fill-opacity="0.200000" stroke="#000000" stroke-width="2" stroke-opacity="0.200000" points="380.9,-154.55 386.76,-152.09 380.65,-150.36 380.9,-154.55"/>
</g>
<!-- src/pages/home&#45;page.ts&#45;&gt;src/components/session&#45;history.ts -->
<g id="edge33" class="edge">
<title>src/pages/home&#45;page.ts&#45;&gt;src/components/session&#45;history.ts</title>
<path fill="none" stroke="#000000" stroke-width="2" stroke-opacity="0.200000" d="M232.8,-248.99C241.5,-249.35 250.9,-249.74 260.11,-250.13"/>
<polygon fill="#000000" fill-opacity="0.200000" stroke="#000000" stroke-width="2" stroke-opacity="0.200000" points="259.74,-252.21 265.82,-250.37 259.91,-248.02 259.74,-252.21"/>
</g>
<!-- src/pages/home&#45;page.ts&#45;&gt;src/theme.ts -->
<g id="edge36" class="edge">
<title>src/pages/home&#45;page.ts&#45;&gt;src/theme.ts</title>
<path fill="none" stroke="#000000" stroke-width="2" stroke-opacity="0.200000" d="M232.72,-251.27C239.23,-253.6 245.31,-257.11 249.75,-262.38 261.98,-276.89 245.98,-332.5 257.75,-347.38 262.82,-353.79 270.15,-358.05 277.85,-360.88"/>
<polygon fill="#000000" fill-opacity="0.200000" stroke="#000000" stroke-width="2" stroke-opacity="0.200000" points="277.01,-362.82 283.37,-362.55 278.23,-358.8 277.01,-362.82"/>
</g>
<!-- src/pages/session&#45;page.ts&#45;&gt;src/api.ts -->
<g id="edge37" class="edge">
<title>src/pages/session&#45;page.ts&#45;&gt;src/api.ts</title>
<path fill="none" stroke="#000000" stroke-width="2" stroke-opacity="0.200000" d="M235.99,-211.09C241.23,-208.82 246.04,-205.69 249.75,-201.38 269.9,-177.99 235.49,-153.76 257.75,-132.38 274.27,-116.51 441.76,-116.95 463.75,-123.38 474.58,-126.54 485.29,-132.95 493.89,-139.12"/>
<polygon fill="#000000" fill-opacity="0.200000" stroke="#000000" stroke-width="2" stroke-opacity="0.200000" points="492.38,-140.61 498.43,-142.56 494.92,-137.26 492.38,-140.61"/>
</g>
<!-- src/pages/session&#45;page.ts&#45;&gt;src/types.ts -->
<g id="edge46" class="edge">
<title>src/pages/session&#45;page.ts&#45;&gt;src/types.ts</title>
<path fill="none" stroke="#000000" stroke-opacity="0.200000" d="M236.18,-211.25C241.39,-208.96 246.14,-205.78 249.75,-201.38 266.56,-180.89 238.39,-100.48 257.75,-82.38 306.55,-36.75 504.94,-61.45 557.75,-102.38 579.81,-119.47 587.56,-152.79 590.29,-173.17"/>
<polygon fill="none" stroke="#000000" stroke-opacity="0.200000" points="588.19,-173.3 590.95,-179.03 592.36,-172.83 588.19,-173.3"/>
</g>
<!-- src/pages/session&#45;page.ts&#45;&gt;src/components/board&#45;notes.ts -->
<g id="edge38" class="edge">
<title>src/pages/session&#45;page.ts&#45;&gt;src/components/board&#45;notes.ts</title>
<path fill="none" stroke="#000000" stroke-width="2" stroke-opacity="0.200000" d="M236.13,-218.13C245.44,-218.52 255.38,-218.93 264.94,-219.33"/>
<polygon fill="#000000" fill-opacity="0.200000" stroke="#000000" stroke-width="2" stroke-opacity="0.200000" points="264.85,-221.43 270.93,-219.58 265.02,-217.23 264.85,-221.43"/>
</g>
<!-- src/pages/session&#45;page.ts&#45;&gt;src/icons.ts -->
<g id="edge42" class="edge">
<title>src/pages/session&#45;page.ts&#45;&gt;src/icons.ts</title>
<path fill="none" stroke="#000000" stroke-width="2" stroke-opacity="0.200000" d="M236.14,-221.54C241.35,-223.83 246.12,-227 249.75,-231.38 264.27,-248.88 242.32,-316.68 257.75,-333.38 258.04,-333.69 376.83,-352.35 377.25,-352.38 457.22,-358.7 483.18,-381.95 557.75,-352.38 565.94,-349.13 573.3,-342.87 579.07,-336.75"/>
<polygon fill="#000000" fill-opacity="0.200000" stroke="#000000" stroke-width="2" stroke-opacity="0.200000" points="580.33,-338.49 582.67,-332.59 577.16,-335.74 580.33,-338.49"/>
</g>
<!-- src/pages/session&#45;page.ts&#45;&gt;src/components/feedback&#45;dialog.ts -->
<g id="edge39" class="edge">
<title>src/pages/session&#45;page.ts&#45;&gt;src/components/feedback&#45;dialog.ts</title>
<path fill="none" stroke="#000000" stroke-width="2" stroke-opacity="0.200000" d="M236.13,-207.29C243.4,-205.71 251.07,-204.04 258.63,-202.4"/>
<polygon fill="#000000" fill-opacity="0.200000" stroke="#000000" stroke-width="2" stroke-opacity="0.200000" points="259.06,-204.46 264.48,-201.13 258.17,-200.35 259.06,-204.46"/>
</g>
<!-- src/pages/session&#45;page.ts&#45;&gt;src/storage.ts -->
<g id="edge44" class="edge">
<title>src/pages/session&#45;page.ts&#45;&gt;src/storage.ts</title>
<path fill="none" stroke="#000000" stroke-width="2" stroke-opacity="0.200000" d="M235.99,-210.72C241.16,-208.5 245.95,-205.48 249.75,-201.38 262.67,-187.44 243.45,-171.9 257.75,-159.38 291.11,-130.17 344.72,-133.52 380.99,-140.41"/>
<polygon fill="#000000" fill-opacity="0.200000" stroke="#000000" stroke-width="2" stroke-opacity="0.200000" points="380.55,-142.46 386.85,-141.61 381.39,-138.35 380.55,-142.46"/>
</g>
<!-- src/pages/session&#45;page.ts&#45;&gt;src/components/retro&#45;board.ts -->
<g id="edge40" class="edge">
<title>src/pages/session&#45;page.ts&#45;&gt;src/components/retro&#45;board.ts</title>
<path fill="none" stroke="#000000" stroke-width="2" stroke-opacity="0.200000" d="M236.17,-222.24C241.25,-224.44 245.97,-227.4 249.75,-231.38 261.34,-243.57 246.14,-256.2 257.75,-268.38 260.49,-271.25 263.72,-273.6 267.22,-275.51"/>
<polygon fill="#000000" fill-opacity="0.200000" stroke="#000000" stroke-width="2" stroke-opacity="0.200000" points="266.11,-277.32 272.45,-277.82 267.81,-273.48 266.11,-277.32"/>
</g>
<!-- src/pages/session&#45;page.ts&#45;&gt;src/components/session&#45;history.ts -->
<g id="edge41" class="edge">
<title>src/pages/session&#45;page.ts&#45;&gt;src/components/session&#45;history.ts</title>
<path fill="none" stroke="#000000" stroke-width="2" stroke-opacity="0.200000" d="M236.1,-225.84C240.8,-227.44 245.44,-229.28 249.75,-231.38 253.74,-233.33 253.75,-235.44 257.75,-237.38 258.94,-237.96 260.16,-238.52 261.4,-239.06"/>
<polygon fill="#000000" fill-opacity="0.200000" stroke="#000000" stroke-width="2" stroke-opacity="0.200000" points="260.63,-241.01 266.98,-241.24 262.16,-237.1 260.63,-241.01"/>
</g>
<!-- src/pages/session&#45;page.ts&#45;&gt;src/theme.ts -->
<g id="edge45" class="edge">
<title>src/pages/session&#45;page.ts&#45;&gt;src/theme.ts</title>
<path fill="none" stroke="#000000" stroke-width="2" stroke-opacity="0.200000" d="M236.17,-221.51C241.38,-223.8 246.14,-226.98 249.75,-231.38 266.15,-251.34 241.97,-326.92 257.75,-347.38 262.79,-353.91 270.18,-358.22 277.95,-361.05"/>
<polygon fill="#000000" fill-opacity="0.200000" stroke="#000000" stroke-width="2" stroke-opacity="0.200000" points="277.2,-363.02 283.54,-362.72 278.39,-358.99 277.2,-363.02"/>
</g>
<!-- src/sse.ts -->
<g id="node20" class="node">
<title>src/sse.ts</title>
<g id="a_node20"><a xlink:href="src/sse.ts" xlink:title="sse.ts">
<path fill="#ddfeff" stroke="black" d="M335.58,-108C335.58,-108 294.42,-108 294.42,-108 291.21,-108 288,-104.8 288,-101.59 288,-101.59 288,-95.17 288,-95.17 288,-91.96 291.21,-88.75 294.42,-88.75 294.42,-88.75 335.58,-88.75 335.58,-88.75 338.79,-88.75 342,-91.96 342,-95.17 342,-95.17 342,-101.59 342,-101.59 342,-104.8 338.79,-108 335.58,-108"/>
<text xml:space="preserve" text-anchor="start" x="302.25" y="-95" font-family="Helvetica,sans-Serif" font-size="9.00">sse.ts</text>
</a>
</g>
</g>
<!-- src/pages/session&#45;page.ts&#45;&gt;src/sse.ts -->
<g id="edge43" class="edge">
<title>src/pages/session&#45;page.ts&#45;&gt;src/sse.ts</title>
<path fill="none" stroke="#000000" stroke-width="2" stroke-opacity="0.200000" d="M236.07,-211.16C241.29,-208.88 246.08,-205.73 249.75,-201.38 261.84,-187.05 246.11,-132.08 257.75,-117.38 263.12,-110.6 271.01,-106.23 279.19,-103.41"/>
<polygon fill="#000000" fill-opacity="0.200000" stroke="#000000" stroke-width="2" stroke-opacity="0.200000" points="279.61,-105.47 284.81,-101.82 278.47,-101.43 279.61,-105.47"/>
</g>
<!-- src/pages/stats&#45;page.ts&#45;&gt;src/api.ts -->
<g id="edge47" class="edge">
<title>src/pages/stats&#45;page.ts&#45;&gt;src/api.ts</title>
<path fill="none" stroke="#000000" stroke-width="2" stroke-opacity="0.200000" d="M196.86,-175.36C203.12,-153.69 221.25,-102.76 257.75,-82.38 338.38,-37.37 383,-64.58 463.75,-109.38 476.84,-116.64 489.18,-128.18 498.13,-137.75"/>
<polygon fill="#000000" fill-opacity="0.200000" stroke="#000000" stroke-width="2" stroke-opacity="0.200000" points="496.42,-138.98 501.99,-142.03 499.54,-136.17 496.42,-138.98"/>
</g>
<!-- src/pages/stats&#45;page.ts&#45;&gt;src/types.ts -->
<g id="edge49" class="edge">
<title>src/pages/stats&#45;page.ts&#45;&gt;src/types.ts</title>
<path fill="none" stroke="#000000" stroke-opacity="0.200000" d="M195.66,-175.35C199.81,-150.14 214.53,-84.18 257.75,-57.38 371.06,12.9 452.44,24.4 557.75,-57.38 576.05,-71.59 586.16,-140.92 589.97,-173.46"/>
<polygon fill="none" stroke="#000000" stroke-opacity="0.200000" points="587.84,-173.29 590.6,-179.02 592.01,-172.82 587.84,-173.29"/>
</g>
<!-- src/pages/stats&#45;page.ts&#45;&gt;src/icons.ts -->
<g id="edge48" class="edge">
<title>src/pages/stats&#45;page.ts&#45;&gt;src/icons.ts</title>
<path fill="none" stroke="#000000" stroke-width="2" stroke-opacity="0.200000" d="M230.85,-188.49C238.1,-190.8 244.95,-194.51 249.75,-200.38 267.1,-221.58 238.56,-303.83 257.75,-323.38 267.08,-332.89 363.94,-332.82 377.25,-333.38 457.4,-336.73 478.86,-347.95 557.75,-333.38 558.54,-333.23 559.33,-333.07 560.13,-332.89"/>
<polygon fill="#000000" fill-opacity="0.200000" stroke="#000000" stroke-width="2" stroke-opacity="0.200000" points="560.55,-334.96 565.75,-331.31 559.41,-330.91 560.55,-334.96"/>
</g>
<!-- src/sse.ts&#45;&gt;src/types.ts -->
<g id="edge50" class="edge">
<title>src/sse.ts&#45;&gt;src/types.ts</title>
<path fill="none" stroke="#000000" stroke-opacity="0.200000" d="M342.34,-95.77C389.91,-92.44 491.36,-91.9 557.75,-138.38 570.19,-147.09 579.23,-161.94 584.85,-173.55"/>
<polygon fill="none" stroke="#000000" stroke-opacity="0.200000" points="582.88,-174.3 587.28,-178.9 586.71,-172.57 582.88,-174.3"/>
</g>
<!-- src/playwright&#45;fixtures.ts -->
<g id="node21" class="node">
<title>src/playwright&#45;fixtures.ts</title>
<g id="a_node21"><a xlink:href="src/playwright-fixtures.ts" xlink:title="playwright&#45;fixtures.ts">
<path fill="#ccffcc" stroke="black" d="M122.33,-398C122.33,-398 22.42,-398 22.42,-398 19.21,-398 16,-394.8 16,-391.59 16,-391.59 16,-385.17 16,-385.17 16,-381.96 19.21,-378.75 22.42,-378.75 22.42,-378.75 122.33,-378.75 122.33,-378.75 125.54,-378.75 128.75,-381.96 128.75,-385.17 128.75,-385.17 128.75,-391.59 128.75,-391.59 128.75,-394.8 125.54,-398 122.33,-398"/>
<text xml:space="preserve" text-anchor="start" x="24" y="-385" font-family="Helvetica,sans-Serif" font-size="9.00">playwright&#45;fixtures.ts</text>
</a>
</g>
</g>
</g>
</svg>
