<?xml version="1.0" encoding="UTF-8" standalone="no"?>
<!DOCTYPE svg PUBLIC "-//W3C//DTD SVG 1.1//EN"
 "http://www.w3.org/Graphics/SVG/1.1/DTD/svg11.dtd">
<!-- Generated by graphviz version 14.1.4 (0)
 -->
<!-- Title: dependency&#45;cruiser output Pages: 1 -->
<svg width="402pt" height="291pt"
 viewBox="0.00 0.00 402.00 291.00" xmlns="http://www.w3.org/2000/svg" xmlns:xlink="http://www.w3.org/1999/xlink">
<g id="graph0" class="graph" transform="scale(1 1) rotate(0) translate(4 287)">
<title>dependency&#45;cruiser output</title>
<polygon fill="white" stroke="none" points="-4,4 -4,-287 398,-287 398,4 -4,4"/>
<g id="clust1" class="cluster">
<title>cluster_src</title>
<path fill="#ffffff" stroke="black" stroke-width="2" d="M20,-8C20,-8 374,-8 374,-8 380,-8 386,-14 386,-20 386,-20 386,-263 386,-263 386,-269 380,-275 374,-275 374,-275 20,-275 20,-275 14,-275 8,-269 8,-263 8,-263 8,-20 8,-20 8,-14 14,-8 20,-8"/>
<text xml:space="preserve" text-anchor="middle" x="197" y="-262.45" font-family="Helvetica,sans-Serif" font-weight="bold" font-size="9.00">src</text>
</g>
<g id="clust2" class="cluster">
<title>cluster_src/components</title>
<path fill="#ffffff" stroke="black" stroke-width="2" d="M28,-100C28,-100 304,-100 304,-100 310,-100 316,-106 316,-112 316,-112 316,-236 316,-236 316,-242 310,-248 304,-248 304,-248 28,-248 28,-248 22,-248 16,-242 16,-236 16,-236 16,-112 16,-112 16,-106 22,-100 28,-100"/>
<text xml:space="preserve" text-anchor="middle" x="166" y="-235.45" font-family="Helvetica,sans-Serif" font-weight="bold" font-size="9.00">components</text>
</g>
<!-- src/api.ts -->
<g id="node1" class="node">
<title>src/api.ts</title>
<g id="a_node1"><a xlink:href="src/api.ts" xlink:title="api.ts">
<path fill="#ddfeff" stroke="black" d="M292.08,-68.62C292.08,-68.62 250.92,-68.62 250.92,-68.62 247.71,-68.62 244.5,-65.42 244.5,-62.21 244.5,-62.21 244.5,-55.79 244.5,-55.79 244.5,-52.58 247.71,-49.38 250.92,-49.38 250.92,-49.38 292.08,-49.38 292.08,-49.38 295.29,-49.38 298.5,-52.58 298.5,-55.79 298.5,-55.79 298.5,-62.21 298.5,-62.21 298.5,-65.42 295.29,-68.62 292.08,-68.62"/>
<text xml:space="preserve" text-anchor="start" x="259.12" y="-55.62" font-family="Helvetica,sans-Serif" font-size="9.00">api.ts</text>
</a>
</g>
</g>
<!-- src/types.ts -->
<g id="node2" class="node">
<title>src/types.ts</title>
<g id="a_node2"><a xlink:href="src/types.ts" xlink:title="types.ts">
<path fill="#ddfeff" stroke="black" d="M371.58,-107.62C371.58,-107.62 330.42,-107.62 330.42,-107.62 327.21,-107.62 324,-104.42 324,-101.21 324,-101.21 324,-94.79 324,-94.79 324,-91.58 327.21,-88.38 330.42,-88.38 330.42,-88.38 371.58,-88.38 371.58,-88.38 374.79,-88.38 378,-91.58 378,-94.79 378,-94.79 378,-101.21 378,-101.21 378,-104.42 374.79,-107.62 371.58,-107.62"/>
<text xml:space="preserve" text-anchor="start" x="333" y="-94.62" font-family="Helvetica,sans-Serif" font-size="9.00">types.ts</text>
</a>
</g>
</g>
<!-- src/api.ts&#45;&gt;src/types.ts -->
<g id="edge1" class="edge">
<title>src/api.ts&#45;&gt;src/types.ts</title>
<path fill="none" stroke="#000000" stroke-opacity="0.200000" d="M292.46,-69.04C301.95,-73.82 313.43,-79.6 323.63,-84.73"/>
<polygon fill="none" stroke="#000000" stroke-opacity="0.200000" points="322.45,-86.49 328.76,-87.31 324.34,-82.74 322.45,-86.49"/>
</g>
<!-- src/components/board&#45;notes.ts -->
<g id="node3" class="node">
<title>src/components/board&#45;notes.ts</title>
<g id="a_node3"><a xlink:href="src/components/board-notes.ts" xlink:title="board&#45;notes.ts">
<path fill="#ddfeff" stroke="black" d="M107.46,-127.62C107.46,-127.62 39.04,-127.62 39.04,-127.62 35.83,-127.62 32.62,-124.42 32.62,-121.21 32.62,-121.21 32.62,-114.79 32.62,-114.79 32.62,-111.58 35.83,-108.38 39.04,-108.38 39.04,-108.38 107.46,-108.38 107.46,-108.38 110.67,-108.38 113.88,-111.58 113.88,-114.79 113.88,-114.79 113.88,-121.21 113.88,-121.21 113.88,-124.42 110.67,-127.62 107.46,-127.62"/>
<text xml:space="preserve" text-anchor="start" x="40.62" y="-114.62" font-family="Helvetica,sans-Serif" font-size="9.00">board&#45;notes.ts</text>
</a>
</g>
</g>
<!-- src/components/board&#45;notes.ts&#45;&gt;src/api.ts -->
<g id="edge2" class="edge">
<title>src/components/board&#45;notes.ts&#45;&gt;src/api.ts</title>
<path fill="none" stroke="#000000" stroke-width="2" stroke-opacity="0.200000" d="M78.54,-108.1C86.69,-90.69 106.27,-55.1 135.5,-41 168.89,-24.89 212.02,-35.27 240.43,-45.73"/>
<polygon fill="#000000" fill-opacity="0.200000" stroke="#000000" stroke-width="2" stroke-opacity="0.200000" points="239.57,-47.65 245.93,-47.85 241.09,-43.73 239.57,-47.65"/>
</g>
<!-- src/components/board&#45;notes.ts&#45;&gt;src/types.ts -->
<g id="edge4" class="edge">
<title>src/components/board&#45;notes.ts&#45;&gt;src/types.ts</title>
<path fill="none" stroke="#000000" stroke-opacity="0.200000" d="M77.66,-107.96C84.82,-88.64 103.49,-46.72 135.5,-30 206.79,7.24 248.6,0.89 316,-43 329.68,-51.91 338.79,-68.45 344.11,-81.07"/>
<polygon fill="none" stroke="#000000" stroke-opacity="0.200000" points="342.11,-81.74 346.26,-86.56 346.02,-80.21 342.11,-81.74"/>
</g>
<!-- src/icons.ts -->
<g id="node4" class="node">
<title>src/icons.ts</title>
<g id="a_node4"><a xlink:href="src/icons.ts" xlink:title="icons.ts">
<path fill="#ddfeff" stroke="black" d="M371.58,-195.62C371.58,-195.62 330.42,-195.62 330.42,-195.62 327.21,-195.62 324,-192.42 324,-189.21 324,-189.21 324,-182.79 324,-182.79 324,-179.58 327.21,-176.38 330.42,-176.38 330.42,-176.38 371.58,-176.38 371.58,-176.38 374.79,-176.38 378,-179.58 378,-182.79 378,-182.79 378,-189.21 378,-189.21 378,-192.42 374.79,-195.62 371.58,-195.62"/>
<text xml:space="preserve" text-anchor="start" x="333.75" y="-182.62" font-family="Helvetica,sans-Serif" font-size="9.00">icons.ts</text>
</a>
</g>
</g>
<!-- src/components/board&#45;notes.ts&#45;&gt;src/icons.ts -->
<g id="edge3" class="edge">
<title>src/components/board&#45;notes.ts&#45;&gt;src/icons.ts</title>
<path fill="none" stroke="#000000" stroke-width="2" stroke-opacity="0.200000" d="M114.16,-126.59C117.23,-128.35 120.08,-130.46 122.5,-133 138.35,-149.61 117.43,-168.83 135.5,-183 162.44,-204.13 261.33,-196.46 314.92,-190.45"/>
<polygon fill="#000000" fill-opacity="0.200000" stroke="#000000" stroke-width="2" stroke-opacity="0.200000" points="315.02,-192.56 320.74,-189.78 314.54,-188.38 315.02,-192.56"/>
</g>
<!-- src/components/feedback&#45;dialog.ts -->
<g id="node5" class="node">
<title>src/components/feedback&#45;dialog.ts</title>
<g id="a_node5"><a xlink:href="src/components/feedback-dialog.ts" xlink:title="feedback&#45;dialog.ts">
<path fill="#ddfeff" stroke="black" d="M116.08,-158.62C116.08,-158.62 30.42,-158.62 30.42,-158.62 27.21,-158.62 24,-155.42 24,-152.21 24,-152.21 24,-145.79 24,-145.79 24,-142.58 27.21,-139.38 30.42,-139.38 30.42,-139.38 116.08,-139.38 116.08,-139.38 119.29,-139.38 122.5,-142.58 122.5,-145.79 122.5,-145.79 122.5,-152.21 122.5,-152.21 122.5,-155.42 119.29,-158.62 116.08,-158.62"/>
<text xml:space="preserve" text-anchor="start" x="32" y="-145.62" font-family="Helvetica,sans-Serif" font-size="9.00">feedback&#45;dialog.ts</text>
</a>
</g>
</g>
<!-- src/components/feedback&#45;dialog.ts&#45;&gt;src/api.ts -->
<g id="edge5" class="edge">
<title>src/components/feedback&#45;dialog.ts&#45;&gt;src/api.ts</title>
<path fill="none" stroke="#000000" stroke-width="2" stroke-opacity="0.200000" d="M117.06,-138.91C119.05,-137.48 120.89,-135.85 122.5,-134 145.86,-107.16 108.37,-78.03 135.5,-55 150.04,-42.65 200.64,-47.62 235.58,-52.88"/>
<polygon fill="#000000" fill-opacity="0.200000" stroke="#000000" stroke-width="2" stroke-opacity="0.200000" points="234.85,-54.89 241.1,-53.74 235.5,-50.74 234.85,-54.89"/>
</g>
<!-- src/storage.ts -->
<g id="node6" class="node">
<title>src/storage.ts</title>
<g id="a_node6"><a xlink:href="src/storage.ts" xlink:title="storage.ts">
<path fill="#ddfeff" stroke="black" d="M202.83,-91.62C202.83,-91.62 154.67,-91.62 154.67,-91.62 151.46,-91.62 148.25,-88.42 148.25,-85.21 148.25,-85.21 148.25,-78.79 148.25,-78.79 148.25,-75.58 151.46,-72.38 154.67,-72.38 154.67,-72.38 202.83,-72.38 202.83,-72.38 206.04,-72.38 209.25,-75.58 209.25,-78.79 209.25,-78.79 209.25,-85.21 209.25,-85.21 209.25,-88.42 206.04,-91.62 202.83,-91.62"/>
<text xml:space="preserve" text-anchor="start" x="156.25" y="-78.62" font-family="Helvetica,sans-Serif" font-size="9.00">storage.ts</text>
</a>
</g>
</g>
<!-- src/components/feedback&#45;dialog.ts&#45;&gt;src/storage.ts -->
<g id="edge6" class="edge">
<title>src/components/feedback&#45;dialog.ts&#45;&gt;src/storage.ts</title>
<path fill="none" stroke="#000000" stroke-width="2" stroke-opacity="0.200000" d="M115.79,-139.12C118.21,-137.64 120.48,-135.95 122.5,-134 135.05,-121.9 123.2,-109.34 135.5,-97 136.93,-95.57 138.5,-94.27 140.18,-93.1"/>
<polygon fill="#000000" fill-opacity="0.200000" stroke="#000000" stroke-width="2" stroke-opacity="0.200000" points="141.18,-94.94 145.39,-90.18 139.13,-91.28 141.18,-94.94"/>
</g>
<!-- src/components/retro&#45;board.ts -->
<g id="node7" class="node">
<title>src/components/retro&#45;board.ts</title>
<g id="a_node7"><a xlink:href="src/components/retro-board.ts" xlink:title="retro&#45;board.ts">
<path fill="#ddfeff" stroke="black" d="M106.33,-189.62C106.33,-189.62 40.17,-189.62 40.17,-189.62 36.96,-189.62 33.75,-186.42 33.75,-183.21 33.75,-183.21 33.75,-176.79 33.75,-176.79 33.75,-173.58 36.96,-170.38 40.17,-170.38 40.17,-170.38 106.33,-170.38 106.33,-170.38 109.54,-170.38 112.75,-173.58 112.75,-176.79 112.75,-176.79 112.75,-183.21 112.75,-183.21 112.75,-186.42 109.54,-189.62 106.33,-189.62"/>
<text xml:space="preserve" text-anchor="start" x="41.75" y="-176.62" font-family="Helvetica,sans-Serif" font-size="9.00">retro&#45;board.ts</text>
</a>
</g>
</g>
<!-- src/components/retro&#45;board.ts&#45;&gt;src/api.ts -->
<g id="edge7" class="edge">
<title>src/components/retro&#45;board.ts&#45;&gt;src/api.ts</title>
<path fill="none" stroke="#000000" stroke-width="2" stroke-opacity="0.200000" d="M113.14,-172.51C116.68,-170.55 119.9,-168.09 122.5,-165 151.09,-131.06 102.91,-96.12 135.5,-66 149.5,-53.06 200.11,-53.73 235.22,-55.94"/>
<polygon fill="#000000" fill-opacity="0.200000" stroke="#000000" stroke-width="2" stroke-opacity="0.200000" points="235.07,-58.03 241.2,-56.35 235.36,-53.84 235.07,-58.03"/>
</g>
<!-- src/components/retro&#45;board.ts&#45;&gt;src/types.ts -->
<g id="edge10" class="edge">
<title>src/components/retro&#45;board.ts&#45;&gt;src/types.ts</title>
<path fill="none" stroke="#000000" stroke-opacity="0.200000" d="M113.23,-171.92C116.66,-170.07 119.84,-167.79 122.5,-165 138.35,-148.39 118.51,-130.45 135.5,-115 152.07,-99.93 212.68,-100.88 235,-99 262.35,-96.7 293.48,-96.58 316.45,-96.96"/>
<polygon fill="none" stroke="#000000" stroke-opacity="0.200000" points="316.36,-99.06 322.4,-97.08 316.44,-94.86 316.36,-99.06"/>
</g>
<!-- src/components/retro&#45;board.ts&#45;&gt;src/icons.ts -->
<g id="edge8" class="edge">
<title>src/components/retro&#45;board.ts&#45;&gt;src/icons.ts</title>
<path fill="none" stroke="#000000" stroke-width="2" stroke-opacity="0.200000" d="M104.13,-190.04C114,-192.88 125.11,-195.59 135.5,-197 212.35,-207.47 235.25,-209.38 315.38,-196.71"/>
<polygon fill="#000000" fill-opacity="0.200000" stroke="#000000" stroke-width="2" stroke-opacity="0.200000" points="315.26,-198.86 320.85,-195.84 314.6,-194.71 315.26,-198.86"/>
</g>
<!-- src/components/retro&#45;board.ts&#45;&gt;src/storage.ts -->
<g id="edge9" class="edge">
<title>src/components/retro&#45;board.ts&#45;&gt;src/storage.ts</title>
<path fill="none" stroke="#000000" stroke-width="2" stroke-opacity="0.200000" d="M112.96,-172.35C116.53,-170.42 119.81,-168.01 122.5,-165 143,-142.05 115.46,-120.35 135.5,-97 136.96,-95.29 138.63,-93.78 140.45,-92.44"/>
<polygon fill="#000000" fill-opacity="0.200000" stroke="#000000" stroke-width="2" stroke-opacity="0.200000" points="141.24,-94.41 145.38,-89.59 139.14,-90.77 141.24,-94.41"/>
</g>
<!-- src/components/retro&#45;column.ts -->
<g id="node8" class="node">
<title>src/components/retro&#45;column.ts</title>
<g id="a_node8"><a xlink:href="src/components/retro-column.ts" xlink:title="retro&#45;column.ts">
<path fill="#ddfeff" stroke="black" d="M215.58,-176.62C215.58,-176.62 141.92,-176.62 141.92,-176.62 138.71,-176.62 135.5,-173.42 135.5,-170.21 135.5,-170.21 135.5,-163.79 135.5,-163.79 135.5,-160.58 138.71,-157.38 141.92,-157.38 141.92,-157.38 215.58,-157.38 215.58,-157.38 218.79,-157.38 222,-160.58 222,-163.79 222,-163.79 222,-170.21 222,-170.21 222,-173.42 218.79,-176.62 215.58,-176.62"/>
<text xml:space="preserve" text-anchor="start" x="143.5" y="-163.62" font-family="Helvetica,sans-Serif" font-size="9.00">retro&#45;column.ts</text>
</a>
</g>
</g>
<!-- src/components/retro&#45;board.ts&#45;&gt;src/components/retro&#45;column.ts -->
<g id="edge11" class="edge">
<title>src/components/retro&#45;board.ts&#45;&gt;src/components/retro&#45;column.ts</title>
<path fill="none" stroke="#000000" stroke-width="2" stroke-opacity="0.200000" d="M113.08,-175.12C117.49,-174.57 122.03,-174 126.56,-173.43"/>
<polygon fill="#000000" fill-opacity="0.200000" stroke="#000000" stroke-width="2" stroke-opacity="0.200000" points="126.53,-175.55 132.23,-172.72 126.01,-171.38 126.53,-175.55"/>
</g>
<!-- src/components/retro&#45;timer.ts -->
<g id="node9" class="node">
<title>src/components/retro&#45;timer.ts</title>
<g id="a_node9"><a xlink:href="src/components/retro-timer.ts" xlink:title="retro&#45;timer.ts">
<path fill="#ddfeff" stroke="black" d="M210.33,-140.62C210.33,-140.62 147.17,-140.62 147.17,-140.62 143.96,-140.62 140.75,-137.42 140.75,-134.21 140.75,-134.21 140.75,-127.79 140.75,-127.79 140.75,-124.58 143.96,-121.38 147.17,-121.38 147.17,-121.38 210.33,-121.38 210.33,-121.38 213.54,-121.38 216.75,-124.58 216.75,-127.79 216.75,-127.79 216.75,-134.21 216.75,-134.21 216.75,-137.42 213.54,-140.62 210.33,-140.62"/>
<text xml:space="preserve" text-anchor="start" x="148.75" y="-127.62" font-family="Helvetica,sans-Serif" font-size="9.00">retro&#45;timer.ts</text>
</a>
</g>
</g>
<!-- src/components/retro&#45;board.ts&#45;&gt;src/components/retro&#45;timer.ts -->
<g id="edge12" class="edge">
<title>src/components/retro&#45;board.ts&#45;&gt;src/components/retro&#45;timer.ts</title>
<path fill="none" stroke="#000000" stroke-width="2" stroke-opacity="0.200000" d="M112.99,-169.98C116.31,-168.52 119.53,-166.87 122.5,-165 129.69,-160.48 128.65,-156.02 135.5,-151 138.45,-148.84 141.66,-146.82 144.96,-144.96"/>
<polygon fill="#000000" fill-opacity="0.200000" stroke="#000000" stroke-width="2" stroke-opacity="0.200000" points="145.69,-146.95 150.04,-142.32 143.75,-143.23 145.69,-146.95"/>
</g>
<!-- src/components/retro&#45;column.ts&#45;&gt;src/types.ts -->
<g id="edge16" class="edge">
<title>src/components/retro&#45;column.ts&#45;&gt;src/types.ts</title>
<path fill="none" stroke="#000000" stroke-opacity="0.200000" d="M207.1,-156.89C212.4,-154.18 217.64,-150.89 222,-147 230.18,-139.69 225.87,-132.09 235,-126 265.34,-105.78 281.03,-123.33 316,-113 318.23,-112.34 320.5,-111.57 322.76,-110.74"/>
<polygon fill="none" stroke="#000000" stroke-opacity="0.200000" points="323.26,-112.8 328.05,-108.63 321.7,-108.9 323.26,-112.8"/>
</g>
<!-- src/components/retro&#45;column.ts&#45;&gt;src/icons.ts -->
<g id="edge15" class="edge">
<title>src/components/retro&#45;column.ts&#45;&gt;src/icons.ts</title>
<path fill="none" stroke="#000000" stroke-width="2" stroke-opacity="0.200000" d="M222.27,-171.75C250.85,-174.94 288.07,-179.09 314.95,-182.09"/>
<polygon fill="#000000" fill-opacity="0.200000" stroke="#000000" stroke-width="2" stroke-opacity="0.200000" points="314.44,-184.14 320.63,-182.72 314.9,-179.97 314.44,-184.14"/>
</g>
<!-- src/components/retro&#45;card.ts -->
<g id="node10" class="node">
<title>src/components/retro&#45;card.ts</title>
<g id="a_node10"><a xlink:href="src/components/retro-card.ts" xlink:title="retro&#45;card.ts">
<path fill="#ddfeff" stroke="black" d="M301.58,-151.62C301.58,-151.62 241.42,-151.62 241.42,-151.62 238.21,-151.62 235,-148.42 235,-145.21 235,-145.21 235,-138.79 235,-138.79 235,-135.58 238.21,-132.38 241.42,-132.38 241.42,-132.38 301.58,-132.38 301.58,-132.38 304.79,-132.38 308,-135.58 308,-138.79 308,-138.79 308,-145.21 308,-145.21 308,-148.42 304.79,-151.62 301.58,-151.62"/>
<text xml:space="preserve" text-anchor="start" x="243" y="-138.62" font-family="Helvetica,sans-Serif" font-size="9.00">retro&#45;card.ts</text>
</a>
</g>
</g>
<!-- src/components/retro&#45;column.ts&#45;&gt;src/components/retro&#45;card.ts -->
<g id="edge17" class="edge">
<title>src/components/retro&#45;column.ts&#45;&gt;src/components/retro&#45;card.ts</title>
<path fill="none" stroke="#000000" stroke-width="2" stroke-opacity="0.200000" d="M216.4,-156.9C219.59,-156.03 222.84,-155.13 226.08,-154.24"/>
<polygon fill="#000000" fill-opacity="0.200000" stroke="#000000" stroke-width="2" stroke-opacity="0.200000" points="226.45,-156.31 231.68,-152.69 225.34,-152.26 226.45,-156.31"/>
</g>
<!-- src/components/retro&#45;timer.ts&#45;&gt;src/api.ts -->
<g id="edge18" class="edge">
<title>src/components/retro&#45;timer.ts&#45;&gt;src/api.ts</title>
<path fill="none" stroke="#000000" stroke-width="2" stroke-opacity="0.200000" d="M215.69,-121.07C217.91,-119.86 220.04,-118.51 222,-117 230.39,-110.52 228.47,-105.35 235,-97 240.92,-89.43 248.06,-81.58 254.38,-74.99"/>
<polygon fill="#000000" fill-opacity="0.200000" stroke="#000000" stroke-width="2" stroke-opacity="0.200000" points="255.54,-76.81 258.23,-71.05 252.54,-73.88 255.54,-76.81"/>
</g>
<!-- src/components/retro&#45;timer.ts&#45;&gt;src/types.ts -->
<g id="edge20" class="edge">
<title>src/components/retro&#45;timer.ts&#45;&gt;src/types.ts</title>
<path fill="none" stroke="#000000" stroke-opacity="0.200000" d="M211.7,-120.95C219.29,-118.79 227.39,-116.66 235,-115 262.23,-109.07 293.53,-104.6 316.6,-101.73"/>
<polygon fill="none" stroke="#000000" stroke-opacity="0.200000" points="316.58,-103.84 322.28,-101.03 316.07,-99.68 316.58,-103.84"/>
</g>
<!-- src/components/retro&#45;timer.ts&#45;&gt;src/icons.ts -->
<g id="edge19" class="edge">
<title>src/components/retro&#45;timer.ts&#45;&gt;src/icons.ts</title>
<path fill="none" stroke="#000000" stroke-width="2" stroke-opacity="0.200000" d="M201.35,-140.96C208.01,-144.1 215.34,-147.63 222,-151 227.86,-153.96 228.78,-155.9 235,-158 269.53,-169.7 281.03,-160.67 316,-171 317.67,-171.49 319.37,-172.05 321.07,-172.65"/>
<polygon fill="#000000" fill-opacity="0.200000" stroke="#000000" stroke-width="2" stroke-opacity="0.200000" points="320.29,-174.6 326.64,-174.83 321.82,-170.69 320.29,-174.6"/>
</g>
<!-- src/components/retro&#45;card.ts&#45;&gt;src/types.ts -->
<g id="edge14" class="edge">
<title>src/components/retro&#45;card.ts&#45;&gt;src/types.ts</title>
<path fill="none" stroke="#000000" stroke-opacity="0.200000" d="M308.16,-131.88C310.87,-130.7 313.52,-129.41 316,-128 322.98,-124.03 329.79,-118.46 335.47,-113.2"/>
<polygon fill="none" stroke="#000000" stroke-opacity="0.200000" points="336.79,-114.84 339.64,-109.16 333.87,-111.82 336.79,-114.84"/>
</g>
<!-- src/components/retro&#45;card.ts&#45;&gt;src/icons.ts -->
<g id="edge13" class="edge">
<title>src/components/retro&#45;card.ts&#45;&gt;src/icons.ts</title>
<path fill="none" stroke="#000000" stroke-width="2" stroke-opacity="0.200000" d="M308.16,-152.12C310.87,-153.3 313.52,-154.59 316,-156 322.54,-159.72 328.94,-164.85 334.39,-169.81"/>
<polygon fill="#000000" fill-opacity="0.200000" stroke="#000000" stroke-width="2" stroke-opacity="0.200000" points="332.76,-171.16 338.54,-173.8 335.67,-168.13 332.76,-171.16"/>
</g>
<!-- src/components/session&#45;history.ts -->
<g id="node11" class="node">
<title>src/components/session&#45;history.ts</title>
<g id="a_node11"><a xlink:href="src/components/session-history.ts" xlink:title="session&#45;history.ts">
<path fill="#ddfeff" stroke="black" d="M112.71,-220.62C112.71,-220.62 33.79,-220.62 33.79,-220.62 30.58,-220.62 27.38,-217.42 27.38,-214.21 27.38,-214.21 27.38,-207.79 27.38,-207.79 27.38,-204.58 30.58,-201.38 33.79,-201.38 33.79,-201.38 112.71,-201.38 112.71,-201.38 115.92,-201.38 119.12,-204.58 119.12,-207.79 119.12,-207.79 119.12,-214.21 119.12,-214.21 119.12,-217.42 115.92,-220.62 112.71,-220.62"/>
<text xml:space="preserve" text-anchor="start" x="35.38" y="-207.62" font-family="Helvetica,sans-Serif" font-size="9.00">session&#45;history.ts</text>
</a>
</g>
</g>
<!-- src/components/session&#45;history.ts&#45;&gt;src/icons.ts -->
<g id="edge21" class="edge">
<title>src/components/session&#45;history.ts&#45;&gt;src/icons.ts</title>
<path fill="none" stroke="#000000" stroke-width="2" stroke-opacity="0.200000" d="M119.29,-216.24C168.56,-220.51 249.39,-223.23 316,-205 320.1,-203.88 324.25,-202.16 328.16,-200.2"/>
<polygon fill="#000000" fill-opacity="0.200000" stroke="#000000" stroke-width="2" stroke-opacity="0.200000" points="328.9,-202.19 333.13,-197.44 326.87,-198.52 328.9,-202.19"/>
</g>
<!-- src/components/session&#45;history.ts&#45;&gt;src/storage.ts -->
<g id="edge22" class="edge">
<title>src/components/session&#45;history.ts&#45;&gt;src/storage.ts</title>
<path fill="none" stroke="#000000" stroke-opacity="0.200000" d="M117.13,-200.97C119.1,-199.53 120.92,-197.88 122.5,-196 151.09,-162.06 107.59,-131.5 135.5,-97 137.22,-94.88 139.26,-93.06 141.5,-91.49"/>
<polygon fill="none" stroke="#000000" stroke-opacity="0.200000" points="142.31,-93.45 146.5,-88.67 140.24,-89.79 142.31,-93.45"/>
</g>
</g>
</svg>
