<?xml version="1.0" encoding="UTF-8" standalone="no"?>
<!DOCTYPE svg PUBLIC "-//W3C//DTD SVG 1.1//EN"
 "http://www.w3.org/Graphics/SVG/1.1/DTD/svg11.dtd">
<!-- Generated by graphviz version 14.1.4 (0)
 -->
<!-- Title: dependency&#45;cruiser output Pages: 1 -->
<svg width="446pt" height="199pt"
 viewBox="0.00 0.00 446.00 199.00" xmlns="http://www.w3.org/2000/svg" xmlns:xlink="http://www.w3.org/1999/xlink">
<g id="graph0" class="graph" transform="scale(1 1) rotate(0) translate(4 195)">
<title>dependency&#45;cruiser output</title>
<polygon fill="white" stroke="none" points="-4,4 -4,-195 442.25,-195 442.25,4 -4,4"/>
<g id="clust1" class="cluster">
<title>cluster_src</title>
<path fill="#ffffff" stroke="black" stroke-width="2" d="M20,-8C20,-8 418.25,-8 418.25,-8 424.25,-8 430.25,-14 430.25,-20 430.25,-20 430.25,-171 430.25,-171 430.25,-177 424.25,-183 418.25,-183 418.25,-183 20,-183 20,-183 14,-183 8,-177 8,-171 8,-171 8,-20 8,-20 8,-14 14,-8 20,-8"/>
<text xml:space="preserve" text-anchor="middle" x="219.12" y="-170.45" font-family="Helvetica,sans-Serif" font-weight="bold" font-size="9.00">src</text>
</g>
<!-- src/api.ts -->
<g id="node1" class="node">
<title>src/api.ts</title>
<g id="a_node1"><a xlink:href="src/api.ts" xlink:title="api.ts">
<path fill="#ddfeff" stroke="black" d="M345.33,-112.62C345.33,-112.62 304.17,-112.62 304.17,-112.62 300.96,-112.62 297.75,-109.42 297.75,-106.21 297.75,-106.21 297.75,-99.79 297.75,-99.79 297.75,-96.58 300.96,-93.38 304.17,-93.38 304.17,-93.38 345.33,-93.38 345.33,-93.38 348.54,-93.38 351.75,-96.58 351.75,-99.79 351.75,-99.79 351.75,-106.21 351.75,-106.21 351.75,-109.42 348.54,-112.62 345.33,-112.62"/>
<text xml:space="preserve" text-anchor="start" x="312.38" y="-99.62" font-family="Helvetica,sans-Serif" font-size="9.00">api.ts</text>
</a>
</g>
</g>
<!-- src/types.ts -->
<g id="node2" class="node">
<title>src/types.ts</title>
<g id="a_node2"><a xlink:href="src/types.ts" xlink:title="types.ts">
<path fill="#ddfeff" stroke="black" d="M415.83,-123.62C415.83,-123.62 374.67,-123.62 374.67,-123.62 371.46,-123.62 368.25,-120.42 368.25,-117.21 368.25,-117.21 368.25,-110.79 368.25,-110.79 368.25,-107.58 371.46,-104.38 374.67,-104.38 374.67,-104.38 415.83,-104.38 415.83,-104.38 419.04,-104.38 422.25,-107.58 422.25,-110.79 422.25,-110.79 422.25,-117.21 422.25,-117.21 422.25,-120.42 419.04,-123.62 415.83,-123.62"/>
<text xml:space="preserve" text-anchor="start" x="377.25" y="-110.62" font-family="Helvetica,sans-Serif" font-size="9.00">types.ts</text>
</a>
</g>
</g>
<!-- src/api.ts&#45;&gt;src/types.ts -->
<g id="edge1" class="edge">
<title>src/api.ts&#45;&gt;src/types.ts</title>
<path fill="none" stroke="#000000" stroke-opacity="0.200000" d="M352.04,-107.22C354.93,-107.69 357.9,-108.16 360.86,-108.64"/>
<polygon fill="none" stroke="#000000" stroke-opacity="0.200000" points="360.39,-110.69 366.65,-109.57 361.06,-106.54 360.39,-110.69"/>
</g>
<!-- src/components -->
<g id="node3" class="node">
<title>src/components</title>
<g id="a_node3"><a xlink:href="src/components" xlink:title="components">
<polygon fill="#ffffcc" stroke="black" points="281.25,-49.62 211.14,-49.62 209,-47.49 209,-30.38 279.11,-30.38 281.25,-32.51 281.25,-49.62"/>
<polyline fill="none" stroke="black" points="279.11,-47.49 209,-47.49"/>
<polyline fill="none" stroke="black" points="279.11,-47.49 279.11,-30.38"/>
<polyline fill="none" stroke="black" points="279.11,-47.49 281.25,-49.62"/>
<text xml:space="preserve" text-anchor="start" x="217" y="-36.62" font-family="Helvetica,sans-Serif" font-size="9.00">components</text>
</a>
</g>
</g>
<!-- src/components&#45;&gt;src/api.ts -->
<g id="edge2" class="edge">
<title>src/components&#45;&gt;src/api.ts</title>
<path fill="none" stroke="#000000" stroke-width="2" stroke-opacity="0.200000" d="M257.48,-50.12C264.5,-56.51 273.6,-65.04 281.25,-73 286.12,-78.07 287.07,-81.13 294.48,-87.41"/>
<polygon fill="#000000" fill-opacity="0.200000" stroke="#000000" stroke-width="2" stroke-opacity="0.200000" points="293.17,-89.05 299.19,-91.07 295.74,-85.73 293.17,-89.05"/>
</g>
<!-- src/components&#45;&gt;src/types.ts -->
<g id="edge4" class="edge">
<title>src/components&#45;&gt;src/types.ts</title>
<path fill="none" stroke="#000000" stroke-opacity="0.200000" d="M281.6,-42.11C308.66,-44.28 343.26,-48.45 355.25,-56 370.64,-65.69 381.37,-83.92 387.63,-97.36"/>
<polygon fill="none" stroke="#000000" stroke-opacity="0.200000" points="385.55,-97.85 389.89,-102.5 389.4,-96.16 385.55,-97.85"/>
</g>
<!-- src/icons.ts -->
<g id="node4" class="node">
<title>src/icons.ts</title>
<g id="a_node4"><a xlink:href="src/icons.ts" xlink:title="icons.ts">
<path fill="#ddfeff" stroke="black" d="M345.33,-81.62C345.33,-81.62 304.17,-81.62 304.17,-81.62 300.96,-81.62 297.75,-78.42 297.75,-75.21 297.75,-75.21 297.75,-68.79 297.75,-68.79 297.75,-65.58 300.96,-62.38 304.17,-62.38 304.17,-62.38 345.33,-62.38 345.33,-62.38 348.54,-62.38 351.75,-65.58 351.75,-68.79 351.75,-68.79 351.75,-75.21 351.75,-75.21 351.75,-78.42 348.54,-81.62 345.33,-81.62"/>
<text xml:space="preserve" text-anchor="start" x="307.5" y="-68.62" font-family="Helvetica,sans-Serif" font-size="9.00">icons.ts</text>
</a>
</g>
</g>
<!-- src/components&#45;&gt;src/icons.ts -->
<g id="edge3" class="edge">
<title>src/components&#45;&gt;src/icons.ts</title>
<path fill="none" stroke="#000000" stroke-width="2" stroke-opacity="0.200000" d="M270.69,-50.12C277.26,-52.84 284.47,-55.81 291.4,-58.66"/>
<polygon fill="#000000" fill-opacity="0.200000" stroke="#000000" stroke-width="2" stroke-opacity="0.200000" points="290.2,-60.44 296.55,-60.79 291.8,-56.56 290.2,-60.44"/>
</g>
<!-- src/storage.ts -->
<g id="node5" class="node">
<title>src/storage.ts</title>
<g id="a_node5"><a xlink:href="src/storage.ts" xlink:title="storage.ts">
<path fill="#ddfeff" stroke="black" d="M348.83,-35.62C348.83,-35.62 300.67,-35.62 300.67,-35.62 297.46,-35.62 294.25,-32.42 294.25,-29.21 294.25,-29.21 294.25,-22.79 294.25,-22.79 294.25,-19.58 297.46,-16.38 300.67,-16.38 300.67,-16.38 348.83,-16.38 348.83,-16.38 352.04,-16.38 355.25,-19.58 355.25,-22.79 355.25,-22.79 355.25,-29.21 355.25,-29.21 355.25,-32.42 352.04,-35.62 348.83,-35.62"/>
<text xml:space="preserve" text-anchor="start" x="302.25" y="-22.62" font-family="Helvetica,sans-Serif" font-size="9.00">storage.ts</text>
</a>
</g>
</g>
<!-- src/components&#45;&gt;src/storage.ts -->
<g id="edge5" class="edge">
<title>src/components&#45;&gt;src/storage.ts</title>
<path fill="none" stroke="#000000" stroke-width="2" stroke-opacity="0.200000" d="M281.3,-33.66C282.61,-33.42 283.92,-33.18 285.23,-32.95"/>
<polygon fill="#000000" fill-opacity="0.200000" stroke="#000000" stroke-width="2" stroke-opacity="0.200000" points="285.28,-35.07 290.81,-31.94 284.54,-30.94 285.28,-35.07"/>
</g>
<!-- src/env.d.ts -->
<g id="node6" class="node">
<title>src/env.d.ts</title>
<g id="a_node6"><a xlink:href="src/env.d.ts" xlink:title="env.d.ts">
<path fill="#ccffcc" stroke="black" d="M92.96,-54.62C92.96,-54.62 51.79,-54.62 51.79,-54.62 48.58,-54.62 45.38,-51.42 45.38,-48.21 45.38,-48.21 45.38,-41.79 45.38,-41.79 45.38,-38.58 48.58,-35.38 51.79,-35.38 51.79,-35.38 92.96,-35.38 92.96,-35.38 96.17,-35.38 99.38,-38.58 99.38,-41.79 99.38,-41.79 99.38,-48.21 99.38,-48.21 99.38,-51.42 96.17,-54.62 92.96,-54.62"/>
<text xml:space="preserve" text-anchor="start" x="54.38" y="-41.62" font-family="Helvetica,sans-Serif" font-size="9.00">env.d.ts</text>
</a>
</g>
</g>
<!-- src/main.ts -->
<g id="node7" class="node">
<title>src/main.ts</title>
<g id="a_node7"><a xlink:href="src/main.ts" xlink:title="main.ts">
<path fill="#ddfeff" stroke="black" d="M92.96,-95.62C92.96,-95.62 51.79,-95.62 51.79,-95.62 48.58,-95.62 45.38,-92.42 45.38,-89.21 45.38,-89.21 45.38,-82.79 45.38,-82.79 45.38,-79.58 48.58,-76.38 51.79,-76.38 51.79,-76.38 92.96,-76.38 92.96,-76.38 96.17,-76.38 99.38,-79.58 99.38,-82.79 99.38,-82.79 99.38,-89.21 99.38,-89.21 99.38,-92.42 96.17,-95.62 92.96,-95.62"/>
<text xml:space="preserve" text-anchor="start" x="55.5" y="-82.62" font-family="Helvetica,sans-Serif" font-size="9.00">main.ts</text>
</a>
</g>
</g>
<!-- src/main.ts&#45;&gt;src/components -->
<g id="edge6" class="edge">
<title>src/main.ts&#45;&gt;src/components</title>
<path fill="none" stroke="#000000" stroke-width="2" stroke-opacity="0.200000" d="M98.09,-75.96C110.96,-70.99 127.04,-65.17 141.75,-61 160.65,-55.64 181.88,-51.06 200.08,-47.55"/>
<polygon fill="#000000" fill-opacity="0.200000" stroke="#000000" stroke-width="2" stroke-opacity="0.200000" points="200.27,-49.65 205.78,-46.48 199.49,-45.53 200.27,-49.65"/>
</g>
<!-- src/pages -->
<g id="node8" class="node">
<title>src/pages</title>
<g id="a_node8"><a xlink:href="src/pages" xlink:title="pages">
<polygon fill="#ffffcc" stroke="black" points="195.88,-86.62 144.01,-86.62 141.88,-84.49 141.88,-67.38 193.74,-67.38 195.88,-69.51 195.88,-86.62"/>
<polyline fill="none" stroke="black" points="193.74,-84.49 141.88,-84.49"/>
<polyline fill="none" stroke="black" points="193.74,-84.49 193.74,-67.38"/>
<polyline fill="none" stroke="black" points="193.74,-84.49 195.88,-86.62"/>
<text xml:space="preserve" text-anchor="start" x="155.38" y="-73.62" font-family="Helvetica,sans-Serif" font-size="9.00">pages</text>
</a>
</g>
</g>
<!-- src/main.ts&#45;&gt;src/pages -->
<g id="edge7" class="edge">
<title>src/main.ts&#45;&gt;src/pages</title>
<path fill="none" stroke="#000000" stroke-width="2" stroke-opacity="0.200000" d="M99.7,-83.49C109.94,-82.52 121.82,-81.39 132.77,-80.34"/>
<polygon fill="#000000" fill-opacity="0.200000" stroke="#000000" stroke-width="2" stroke-opacity="0.200000" points="132.91,-82.44 138.68,-79.78 132.51,-78.26 132.91,-82.44"/>
</g>
<!-- src/router.ts -->
<g id="node9" class="node">
<title>src/router.ts</title>
<g id="a_node9"><a xlink:href="src/router.ts" xlink:title="router.ts">
<path fill="#ddfeff" stroke="black" d="M189.58,-117.62C189.58,-117.62 148.17,-117.62 148.17,-117.62 144.96,-117.62 141.75,-114.42 141.75,-111.21 141.75,-111.21 141.75,-104.79 141.75,-104.79 141.75,-101.58 144.96,-98.38 148.17,-98.38 148.17,-98.38 189.58,-98.38 189.58,-98.38 192.79,-98.38 196,-101.58 196,-104.79 196,-104.79 196,-111.21 196,-111.21 196,-114.42 192.79,-117.62 189.58,-117.62"/>
<text xml:space="preserve" text-anchor="start" x="149.75" y="-104.62" font-family="Helvetica,sans-Serif" font-size="9.00">router.ts</text>
</a>
</g>
</g>
<!-- src/main.ts&#45;&gt;src/router.ts -->
<g id="edge8" class="edge">
<title>src/main.ts&#45;&gt;src/router.ts</title>
<path fill="none" stroke="#000000" stroke-width="2" stroke-opacity="0.200000" d="M99.7,-92.13C109.95,-94.52 121.86,-97.29 132.82,-99.84"/>
<polygon fill="#000000" fill-opacity="0.200000" stroke="#000000" stroke-width="2" stroke-opacity="0.200000" points="132.1,-101.83 138.42,-101.14 133.05,-97.74 132.1,-101.83"/>
</g>
<!-- src/theme.ts -->
<g id="node10" class="node">
<title>src/theme.ts</title>
<g id="a_node10"><a xlink:href="src/theme.ts" xlink:title="theme.ts">
<path fill="#ddfeff" stroke="black" d="M266.96,-155.62C266.96,-155.62 223.29,-155.62 223.29,-155.62 220.08,-155.62 216.88,-152.42 216.88,-149.21 216.88,-149.21 216.88,-142.79 216.88,-142.79 216.88,-139.58 220.08,-136.38 223.29,-136.38 223.29,-136.38 266.96,-136.38 266.96,-136.38 270.17,-136.38 273.38,-139.58 273.38,-142.79 273.38,-142.79 273.38,-149.21 273.38,-149.21 273.38,-152.42 270.17,-155.62 266.96,-155.62"/>
<text xml:space="preserve" text-anchor="start" x="224.88" y="-142.62" font-family="Helvetica,sans-Serif" font-size="9.00">theme.ts</text>
</a>
</g>
</g>
<!-- src/main.ts&#45;&gt;src/theme.ts -->
<g id="edge9" class="edge">
<title>src/main.ts&#45;&gt;src/theme.ts</title>
<path fill="none" stroke="#000000" stroke-width="2" stroke-opacity="0.200000" d="M88.49,-96.12C101.94,-104.7 122.43,-116.74 141.75,-124 163,-131.99 187.88,-137.42 207.79,-140.88"/>
<polygon fill="#000000" fill-opacity="0.200000" stroke="#000000" stroke-width="2" stroke-opacity="0.200000" points="207.31,-142.93 213.57,-141.84 208,-138.79 207.31,-142.93"/>
</g>
<!-- src/pages&#45;&gt;src/api.ts -->
<g id="edge10" class="edge">
<title>src/pages&#45;&gt;src/api.ts</title>
<path fill="none" stroke="#000000" stroke-width="2" stroke-opacity="0.200000" d="M195.93,-76.04C218.75,-75.81 252.66,-76.95 281.25,-84 286.61,-85.32 292.13,-87.29 297.34,-89.46"/>
<polygon fill="#000000" fill-opacity="0.200000" stroke="#000000" stroke-width="2" stroke-opacity="0.200000" points="296.13,-91.22 302.46,-91.75 297.84,-87.38 296.13,-91.22"/>
</g>
<!-- src/pages&#45;&gt;src/types.ts -->
<g id="edge16" class="edge">
<title>src/pages&#45;&gt;src/types.ts</title>
<path fill="none" stroke="#000000" stroke-width="2" stroke-opacity="0.200000" d="M190.12,-87.06C192.23,-88.55 194.25,-90.2 196,-92 204.47,-100.68 198.88,-109.31 209,-116 236.15,-133.95 322.96,-128.07 355.25,-124 356.55,-123.84 357.87,-123.64 359.2,-123.42"/>
<polygon fill="#000000" fill-opacity="0.200000" stroke="#000000" stroke-width="2" stroke-opacity="0.200000" points="359.54,-125.5 365.02,-122.27 358.73,-121.38 359.54,-125.5"/>
</g>
<!-- src/pages&#45;&gt;src/components -->
<g id="edge11" class="edge">
<title>src/pages&#45;&gt;src/components</title>
<path fill="none" stroke="#000000" stroke-width="2" stroke-opacity="0.200000" d="M190.16,-66.89C198.1,-62.93 207.35,-58.33 215.92,-54.06"/>
<polygon fill="#000000" fill-opacity="0.200000" stroke="#000000" stroke-width="2" stroke-opacity="0.200000" points="216.72,-56 221.15,-51.45 214.84,-52.24 216.72,-56"/>
</g>
<!-- src/pages&#45;&gt;src/icons.ts -->
<g id="edge12" class="edge">
<title>src/pages&#45;&gt;src/icons.ts</title>
<path fill="none" stroke="#000000" stroke-width="2" stroke-opacity="0.200000" d="M196.37,-73.95C200.59,-73.57 204.91,-73.23 209,-73 235.57,-71.53 265.66,-71.32 288.36,-71.46"/>
<polygon fill="#000000" fill-opacity="0.200000" stroke="#000000" stroke-width="2" stroke-opacity="0.200000" points="288.25,-73.56 294.27,-71.51 288.28,-69.36 288.25,-73.56"/>
</g>
<!-- src/pages&#45;&gt;src/storage.ts -->
<g id="edge13" class="edge">
<title>src/pages&#45;&gt;src/storage.ts</title>
<path fill="none" stroke="#000000" stroke-width="2" stroke-opacity="0.200000" d="M173.88,-66.93C179.54,-54.23 191.23,-32.97 209,-24 232.24,-12.27 261.65,-13.03 284.88,-16.59"/>
<polygon fill="#000000" fill-opacity="0.200000" stroke="#000000" stroke-width="2" stroke-opacity="0.200000" points="284.52,-18.66 290.79,-17.62 285.23,-14.53 284.52,-18.66"/>
</g>
<!-- src/pages&#45;&gt;src/theme.ts -->
<g id="edge14" class="edge">
<title>src/pages&#45;&gt;src/theme.ts</title>
<path fill="none" stroke="#000000" stroke-width="2" stroke-opacity="0.200000" d="M190.63,-87.01C192.61,-88.5 194.45,-90.16 196,-92 206.72,-104.66 198.12,-114.47 209,-127 210.26,-128.45 211.65,-129.8 213.14,-131.07"/>
<polygon fill="#000000" fill-opacity="0.200000" stroke="#000000" stroke-width="2" stroke-opacity="0.200000" points="211.56,-132.52 217.66,-134.31 214,-129.11 211.56,-132.52"/>
</g>
<!-- src/sse.ts -->
<g id="node11" class="node">
<title>src/sse.ts</title>
<g id="a_node11"><a xlink:href="src/sse.ts" xlink:title="sse.ts">
<path fill="#ddfeff" stroke="black" d="M265.71,-109.62C265.71,-109.62 224.54,-109.62 224.54,-109.62 221.33,-109.62 218.12,-106.42 218.12,-103.21 218.12,-103.21 218.12,-96.79 218.12,-96.79 218.12,-93.58 221.33,-90.38 224.54,-90.38 224.54,-90.38 265.71,-90.38 265.71,-90.38 268.92,-90.38 272.12,-93.58 272.12,-96.79 272.12,-96.79 272.12,-103.21 272.12,-103.21 272.12,-106.42 268.92,-109.62 265.71,-109.62"/>
<text xml:space="preserve" text-anchor="start" x="232.38" y="-96.62" font-family="Helvetica,sans-Serif" font-size="9.00">sse.ts</text>
</a>
</g>
</g>
<!-- src/pages&#45;&gt;src/sse.ts -->
<g id="edge15" class="edge">
<title>src/pages&#45;&gt;src/sse.ts</title>
<path fill="none" stroke="#000000" stroke-width="2" stroke-opacity="0.200000" d="M196.26,-85.17C200.53,-86.5 205,-87.88 209.43,-89.25"/>
<polygon fill="#000000" fill-opacity="0.200000" stroke="#000000" stroke-width="2" stroke-opacity="0.200000" points="208.58,-91.19 214.93,-90.96 209.82,-87.18 208.58,-91.19"/>
</g>
<!-- src/sse.ts&#45;&gt;src/types.ts -->
<g id="edge17" class="edge">
<title>src/sse.ts&#45;&gt;src/types.ts</title>
<path fill="none" stroke="#000000" stroke-opacity="0.200000" d="M266.7,-110.09C275.04,-113.66 284.9,-117.22 294.25,-119 316.21,-123.18 341.33,-121.9 360.91,-119.59"/>
<polygon fill="none" stroke="#000000" stroke-opacity="0.200000" points="360.93,-121.7 366.62,-118.85 360.4,-117.54 360.93,-121.7"/>
</g>
<!-- src/playwright&#45;fixtures.ts -->
<g id="node12" class="node">
<title>src/playwright&#45;fixtures.ts</title>
<g id="a_node12"><a xlink:href="src/playwright-fixtures.ts" xlink:title="playwright&#45;fixtures.ts">
<path fill="#ccffcc" stroke="black" d="M122.33,-145.62C122.33,-145.62 22.42,-145.62 22.42,-145.62 19.21,-145.62 16,-142.42 16,-139.21 16,-139.21 16,-132.79 16,-132.79 16,-129.58 19.21,-126.38 22.42,-126.38 22.42,-126.38 122.33,-126.38 122.33,-126.38 125.54,-126.38 128.75,-129.58 128.75,-132.79 128.75,-132.79 128.75,-139.21 128.75,-139.21 128.75,-142.42 125.54,-145.62 122.33,-145.62"/>
<text xml:space="preserve" text-anchor="start" x="24" y="-132.62" font-family="Helvetica,sans-Serif" font-size="9.00">playwright&#45;fixtures.ts</text>
</a>
</g>
</g>
</g>
</svg>
