<?xml version="1.0" encoding="UTF-8" standalone="no"?>
<!DOCTYPE svg PUBLIC "-//W3C//DTD SVG 1.1//EN"
 "http://www.w3.org/Graphics/SVG/1.1/DTD/svg11.dtd">
<!-- Generated by graphviz version 14.1.4 (0)
 -->
<!-- Title: dependency&#45;cruiser output Pages: 1 -->
<svg width="523pt" height="428pt"
 viewBox="0.00 0.00 523.00 428.00" xmlns="http://www.w3.org/2000/svg" xmlns:xlink="http://www.w3.org/1999/xlink">
<g id="graph0" class="graph" transform="scale(1 1) rotate(0) translate(4 423.52)">
<title>dependency&#45;cruiser output</title>
<polygon fill="white" stroke="none" points="-4,4 -4,-423.52 519,-423.52 519,4 -4,4"/>
<g id="clust1" class="cluster">
<title>cluster_src</title>
<path fill="#ffffff" stroke="black" stroke-width="2" d="M20,-32.52C20,-32.52 495,-32.52 495,-32.52 501,-32.52 507,-38.52 507,-44.52 507,-44.52 507,-399.52 507,-399.52 507,-405.52 501,-411.52 495,-411.52 495,-411.52 20,-411.52 20,-411.52 14,-411.52 8,-405.52 8,-399.52 8,-399.52 8,-44.52 8,-44.52 8,-38.52 14,-32.52 20,-32.52"/>
<text xml:space="preserve" text-anchor="middle" x="257.5" y="-398.97" font-family="Helvetica,sans-Serif" font-weight="bold" font-size="9.00">src</text>
</g>
<g id="clust2" class="cluster">
<title>cluster_src/components</title>
<path fill="#ffffff" stroke="black" stroke-width="2" d="M149,-78.52C149,-78.52 425,-78.52 425,-78.52 431,-78.52 437,-84.52 437,-90.52 437,-90.52 437,-214.52 437,-214.52 437,-220.52 431,-226.52 425,-226.52 425,-226.52 149,-226.52 149,-226.52 143,-226.52 137,-220.52 137,-214.52 137,-214.52 137,-90.52 137,-90.52 137,-84.52 143,-78.52 149,-78.52"/>
<text xml:space="preserve" text-anchor="middle" x="287" y="-213.97" font-family="Helvetica,sans-Serif" font-weight="bold" font-size="9.00">components</text>
</g>
<g id="clust3" class="cluster">
<title>cluster_src/pages</title>
<path fill="#ffffff" stroke="black" stroke-width="2" d="M28,-203.52C28,-203.52 117,-203.52 117,-203.52 123,-203.52 129,-209.52 129,-215.52 129,-215.52 129,-339.52 129,-339.52 129,-345.52 123,-351.52 117,-351.52 117,-351.52 28,-351.52 28,-351.52 22,-351.52 16,-345.52 16,-339.52 16,-339.52 16,-215.52 16,-215.52 16,-209.52 22,-203.52 28,-203.52"/>
<text xml:space="preserve" text-anchor="middle" x="72.5" y="-338.97" font-family="Helvetica,sans-Serif" font-weight="bold" font-size="9.00">pages</text>
</g>
<!-- src/api.ts -->
<g id="node1" class="node">
<title>src/api.ts</title>
<g id="a_node1"><a xlink:href="src/api.ts" xlink:title="api.ts">
<path fill="#ddfeff" stroke="black" d="M413.08,-260.15C413.08,-260.15 371.92,-260.15 371.92,-260.15 368.71,-260.15 365.5,-256.94 365.5,-253.73 365.5,-253.73 365.5,-247.31 365.5,-247.31 365.5,-244.11 368.71,-240.9 371.92,-240.9 371.92,-240.9 413.08,-240.9 413.08,-240.9 416.29,-240.9 419.5,-244.11 419.5,-247.31 419.5,-247.31 419.5,-253.73 419.5,-253.73 419.5,-256.94 416.29,-260.15 413.08,-260.15"/>
<text xml:space="preserve" text-anchor="start" x="380.12" y="-247.15" font-family="Helvetica,sans-Serif" font-size="9.00">api.ts</text>
</a>
</g>
</g>
<!-- src/types.ts -->
<g id="node2" class="node">
<title>src/types.ts</title>
<g id="a_node2"><a xlink:href="src/types.ts" xlink:title="types.ts">
<path fill="#ddfeff" stroke="black" d="M492.58,-237.15C492.58,-237.15 451.42,-237.15 451.42,-237.15 448.21,-237.15 445,-233.94 445,-230.73 445,-230.73 445,-224.31 445,-224.31 445,-221.11 448.21,-217.9 451.42,-217.9 451.42,-217.9 492.58,-217.9 492.58,-217.9 495.79,-217.9 499,-221.11 499,-224.31 499,-224.31 499,-230.73 499,-230.73 499,-233.94 495.79,-237.15 492.58,-237.15"/>
<text xml:space="preserve" text-anchor="start" x="454" y="-224.15" font-family="Helvetica,sans-Serif" font-size="9.00">types.ts</text>
</a>
</g>
</g>
<!-- src/api.ts&#45;&gt;src/types.ts -->
<g id="edge1" class="edge">
<title>src/api.ts&#45;&gt;src/types.ts</title>
<path fill="none" stroke="#000000" stroke-opacity="0.200000" d="M419.74,-242.74C425.48,-241.03 431.64,-239.2 437.62,-237.43"/>
<polygon fill="none" stroke="#000000" stroke-opacity="0.200000" points="437.92,-239.53 443.07,-235.81 436.72,-235.5 437.92,-239.53"/>
</g>
<!-- src/components/board&#45;notes.ts -->
<g id="node3" class="node">
<title>src/components/board&#45;notes.ts</title>
<g id="a_node3"><a xlink:href="src/components/board-notes.ts" xlink:title="board&#45;notes.ts">
<path fill="#ddfeff" stroke="black" d="M228.46,-137.15C228.46,-137.15 160.04,-137.15 160.04,-137.15 156.83,-137.15 153.62,-133.94 153.62,-130.73 153.62,-130.73 153.62,-124.31 153.62,-124.31 153.62,-121.11 156.83,-117.9 160.04,-117.9 160.04,-117.9 228.46,-117.9 228.46,-117.9 231.67,-117.9 234.88,-121.11 234.88,-124.31 234.88,-124.31 234.88,-130.73 234.88,-130.73 234.88,-133.94 231.67,-137.15 228.46,-137.15"/>
<text xml:space="preserve" text-anchor="start" x="161.62" y="-124.15" font-family="Helvetica,sans-Serif" font-size="9.00">board&#45;notes.ts</text>
</a>
</g>
</g>
<!-- src/components/board&#45;notes.ts&#45;&gt;src/api.ts -->
<g id="edge2" class="edge">
<title>src/components/board&#45;notes.ts&#45;&gt;src/api.ts</title>
<path fill="none" stroke="#000000" stroke-width="2" stroke-opacity="0.200000" d="M235.2,-136.08C238.26,-137.84 241.1,-139.97 243.5,-142.52 260.12,-160.19 239.7,-178.03 256.5,-195.52 284.21,-224.39 306.85,-203.35 343,-220.52 349.35,-223.54 350.08,-225.73 356,-229.52 359.35,-231.67 362.91,-233.87 366.44,-236"/>
<polygon fill="#000000" fill-opacity="0.200000" stroke="#000000" stroke-width="2" stroke-opacity="0.200000" points="365.19,-237.7 371.41,-238.96 367.33,-234.09 365.19,-237.7"/>
</g>
<!-- src/components/board&#45;notes.ts&#45;&gt;src/types.ts -->
<g id="edge4" class="edge">
<title>src/components/board&#45;notes.ts&#45;&gt;src/types.ts</title>
<path fill="none" stroke="#000000" stroke-opacity="0.200000" d="M235.04,-136.24C238.14,-137.97 241.02,-140.04 243.5,-142.52 257.31,-156.35 241.61,-171.87 256.5,-184.52 286.08,-209.65 306.11,-184.46 343,-196.52 349.24,-198.56 349.81,-201.34 356,-203.52 390.53,-215.68 401.28,-210.5 437,-218.52 437.16,-218.56 437.31,-218.59 437.47,-218.63"/>
<polygon fill="none" stroke="#000000" stroke-opacity="0.200000" points="436.9,-220.65 443.22,-220 437.87,-216.56 436.9,-220.65"/>
</g>
<!-- src/icons.ts -->
<g id="node4" class="node">
<title>src/icons.ts</title>
<g id="a_node4"><a xlink:href="src/icons.ts" xlink:title="icons.ts">
<path fill="#ddfeff" stroke="black" d="M492.58,-107.15C492.58,-107.15 451.42,-107.15 451.42,-107.15 448.21,-107.15 445,-103.94 445,-100.73 445,-100.73 445,-94.31 445,-94.31 445,-91.11 448.21,-87.9 451.42,-87.9 451.42,-87.9 492.58,-87.9 492.58,-87.9 495.79,-87.9 499,-91.11 499,-94.31 499,-94.31 499,-100.73 499,-100.73 499,-103.94 495.79,-107.15 492.58,-107.15"/>
<text xml:space="preserve" text-anchor="start" x="454.75" y="-94.15" font-family="Helvetica,sans-Serif" font-size="9.00">icons.ts</text>
</a>
</g>
</g>
<!-- src/components/board&#45;notes.ts&#45;&gt;src/icons.ts -->
<g id="edge3" class="edge">
<title>src/components/board&#45;notes.ts&#45;&gt;src/icons.ts</title>
<path fill="none" stroke="#000000" stroke-width="2" stroke-opacity="0.200000" d="M228.57,-117.48C233.59,-115.87 238.69,-114.19 243.5,-112.52 249.35,-110.49 250.44,-108.79 256.5,-107.52 318.53,-94.5 392.78,-94.37 435.66,-95.74"/>
<polygon fill="#000000" fill-opacity="0.200000" stroke="#000000" stroke-width="2" stroke-opacity="0.200000" points="435.48,-97.84 441.55,-95.96 435.63,-93.64 435.48,-97.84"/>
</g>
<!-- src/components/feedback&#45;dialog.ts -->
<g id="node5" class="node">
<title>src/components/feedback&#45;dialog.ts</title>
<g id="a_node5"><a xlink:href="src/components/feedback-dialog.ts" xlink:title="feedback&#45;dialog.ts">
<path fill="#ddfeff" stroke="black" d="M237.08,-199.15C237.08,-199.15 151.42,-199.15 151.42,-199.15 148.21,-199.15 145,-195.94 145,-192.73 145,-192.73 145,-186.31 145,-186.31 145,-183.11 148.21,-179.9 151.42,-179.9 151.42,-179.9 237.08,-179.9 237.08,-179.9 240.29,-179.9 243.5,-183.11 243.5,-186.31 243.5,-186.31 243.5,-192.73 243.5,-192.73 243.5,-195.94 240.29,-199.15 237.08,-199.15"/>
<text xml:space="preserve" text-anchor="start" x="153" y="-186.15" font-family="Helvetica,sans-Serif" font-size="9.00">feedback&#45;dialog.ts</text>
</a>
</g>
</g>
<!-- src/components/feedback&#45;dialog.ts&#45;&gt;src/api.ts -->
<g id="edge5" class="edge">
<title>src/components/feedback&#45;dialog.ts&#45;&gt;src/api.ts</title>
<path fill="none" stroke="#000000" stroke-width="2" stroke-opacity="0.200000" d="M238.07,-199.4C240,-200.62 241.83,-201.99 243.5,-203.52 255.4,-214.48 243.63,-227.72 256.5,-237.52 271.63,-249.05 321.43,-251.2 356.12,-251.22"/>
<polygon fill="#000000" fill-opacity="0.200000" stroke="#000000" stroke-width="2" stroke-opacity="0.200000" points="356,-253.33 361.99,-251.2 355.98,-249.13 356,-253.33"/>
</g>
<!-- src/storage.ts -->
<g id="node6" class="node">
<title>src/storage.ts</title>
<g id="a_node6"><a xlink:href="src/storage.ts" xlink:title="storage.ts">
<path fill="#ddfeff" stroke="black" d="M323.83,-280.15C323.83,-280.15 275.67,-280.15 275.67,-280.15 272.46,-280.15 269.25,-276.94 269.25,-273.73 269.25,-273.73 269.25,-267.31 269.25,-267.31 269.25,-264.11 272.46,-260.9 275.67,-260.9 275.67,-260.9 323.83,-260.9 323.83,-260.9 327.04,-260.9 330.25,-264.11 330.25,-267.31 330.25,-267.31 330.25,-273.73 330.25,-273.73 330.25,-276.94 327.04,-280.15 323.83,-280.15"/>
<text xml:space="preserve" text-anchor="start" x="277.25" y="-267.15" font-family="Helvetica,sans-Serif" font-size="9.00">storage.ts</text>
</a>
</g>
</g>
<!-- src/components/feedback&#45;dialog.ts&#45;&gt;src/storage.ts -->
<g id="edge6" class="edge">
<title>src/components/feedback&#45;dialog.ts&#45;&gt;src/storage.ts</title>
<path fill="none" stroke="#000000" stroke-width="2" stroke-opacity="0.200000" d="M238.69,-199.5C240.42,-200.69 242.03,-202.03 243.5,-203.52 258.99,-219.29 242.15,-234.71 256.5,-251.52 258.11,-253.42 259.96,-255.13 261.95,-256.68"/>
<polygon fill="#000000" fill-opacity="0.200000" stroke="#000000" stroke-width="2" stroke-opacity="0.200000" points="260.44,-258.21 266.63,-259.69 262.72,-254.68 260.44,-258.21"/>
</g>
<!-- src/components/retro&#45;board.ts -->
<g id="node7" class="node">
<title>src/components/retro&#45;board.ts</title>
<g id="a_node7"><a xlink:href="src/components/retro-board.ts" xlink:title="retro&#45;board.ts">
<path fill="#ddfeff" stroke="black" d="M227.33,-168.15C227.33,-168.15 161.17,-168.15 161.17,-168.15 157.96,-168.15 154.75,-164.94 154.75,-161.73 154.75,-161.73 154.75,-155.31 154.75,-155.31 154.75,-152.11 157.96,-148.9 161.17,-148.9 161.17,-148.9 227.33,-148.9 227.33,-148.9 230.54,-148.9 233.75,-152.11 233.75,-155.31 233.75,-155.31 233.75,-161.73 233.75,-161.73 233.75,-164.94 230.54,-168.15 227.33,-168.15"/>
<text xml:space="preserve" text-anchor="start" x="162.75" y="-155.15" font-family="Helvetica,sans-Serif" font-size="9.00">retro&#45;board.ts</text>
</a>
</g>
</g>
<!-- src/components/retro&#45;board.ts&#45;&gt;src/api.ts -->
<g id="edge7" class="edge">
<title>src/components/retro&#45;board.ts&#45;&gt;src/api.ts</title>
<path fill="none" stroke="#000000" stroke-width="2" stroke-opacity="0.200000" d="M234.23,-166.6C237.66,-168.45 240.84,-170.73 243.5,-173.52 259.35,-190.14 239.61,-207.97 256.5,-223.52 285.21,-249.95 304.82,-230.5 343,-238.52 347.4,-239.45 352,-240.49 356.55,-241.56"/>
<polygon fill="#000000" fill-opacity="0.200000" stroke="#000000" stroke-width="2" stroke-opacity="0.200000" points="355.88,-243.56 362.21,-242.93 356.87,-239.48 355.88,-243.56"/>
</g>
<!-- src/components/retro&#45;board.ts&#45;&gt;src/types.ts -->
<g id="edge10" class="edge">
<title>src/components/retro&#45;board.ts&#45;&gt;src/types.ts</title>
<path fill="none" stroke="#000000" stroke-opacity="0.200000" d="M233.97,-167.65C237.37,-169.3 240.61,-171.24 243.5,-173.52 252.41,-180.57 247.31,-188.86 256.5,-195.52 284.68,-215.96 384.06,-223.57 437.08,-226.22"/>
<polygon fill="none" stroke="#000000" stroke-opacity="0.200000" points="436.95,-228.31 443.04,-226.5 437.15,-224.12 436.95,-228.31"/>
</g>
<!-- src/components/retro&#45;board.ts&#45;&gt;src/icons.ts -->
<g id="edge8" class="edge">
<title>src/components/retro&#45;board.ts&#45;&gt;src/icons.ts</title>
<path fill="none" stroke="#000000" stroke-width="2" stroke-opacity="0.200000" d="M233.97,-149.39C237.37,-147.75 240.61,-145.81 243.5,-143.52 252.41,-136.48 246.96,-127.69 256.5,-121.52 271.21,-112.01 378.88,-103.59 435.85,-99.74"/>
<polygon fill="#000000" fill-opacity="0.200000" stroke="#000000" stroke-width="2" stroke-opacity="0.200000" points="435.67,-101.86 441.52,-99.36 435.39,-97.67 435.67,-101.86"/>
</g>
<!-- src/components/retro&#45;board.ts&#45;&gt;src/storage.ts -->
<g id="edge9" class="edge">
<title>src/components/retro&#45;board.ts&#45;&gt;src/storage.ts</title>
<path fill="none" stroke="#000000" stroke-width="2" stroke-opacity="0.200000" d="M233.92,-166.2C237.5,-168.13 240.79,-170.53 243.5,-173.52 262.96,-195.06 241.23,-212.84 256.5,-237.52 260.82,-244.5 267.17,-250.58 273.64,-255.56"/>
<polygon fill="#000000" fill-opacity="0.200000" stroke="#000000" stroke-width="2" stroke-opacity="0.200000" points="272.05,-257 278.15,-258.77 274.48,-253.58 272.05,-257"/>
</g>
<!-- src/components/retro&#45;column.ts -->
<g id="node8" class="node">
<title>src/components/retro&#45;column.ts</title>
<g id="a_node8"><a xlink:href="src/components/retro-column.ts" xlink:title="retro&#45;column.ts">
<path fill="#ddfeff" stroke="black" d="M336.58,-147.15C336.58,-147.15 262.92,-147.15 262.92,-147.15 259.71,-147.15 256.5,-143.94 256.5,-140.73 256.5,-140.73 256.5,-134.31 256.5,-134.31 256.5,-131.11 259.71,-127.9 262.92,-127.9 262.92,-127.9 336.58,-127.9 336.58,-127.9 339.79,-127.9 343,-131.11 343,-134.31 343,-134.31 343,-140.73 343,-140.73 343,-143.94 339.79,-147.15 336.58,-147.15"/>
<text xml:space="preserve" text-anchor="start" x="264.5" y="-134.15" font-family="Helvetica,sans-Serif" font-size="9.00">retro&#45;column.ts</text>
</a>
</g>
</g>
<!-- src/components/retro&#45;board.ts&#45;&gt;src/components/retro&#45;column.ts -->
<g id="edge11" class="edge">
<title>src/components/retro&#45;board.ts&#45;&gt;src/components/retro&#45;column.ts</title>
<path fill="none" stroke="#000000" stroke-width="2" stroke-opacity="0.200000" d="M234.08,-150.64C238.49,-149.75 243.03,-148.83 247.56,-147.91"/>
<polygon fill="#000000" fill-opacity="0.200000" stroke="#000000" stroke-width="2" stroke-opacity="0.200000" points="247.8,-150 253.26,-146.75 246.96,-145.89 247.8,-150"/>
</g>
<!-- src/components/retro&#45;timer.ts -->
<g id="node9" class="node">
<title>src/components/retro&#45;timer.ts</title>
<g id="a_node9"><a xlink:href="src/components/retro-timer.ts" xlink:title="retro&#45;timer.ts">
<path fill="#ddfeff" stroke="black" d="M331.33,-178.15C331.33,-178.15 268.17,-178.15 268.17,-178.15 264.96,-178.15 261.75,-174.94 261.75,-171.73 261.75,-171.73 261.75,-165.31 261.75,-165.31 261.75,-162.11 264.96,-158.9 268.17,-158.9 268.17,-158.9 331.33,-158.9 331.33,-158.9 334.54,-158.9 337.75,-162.11 337.75,-165.31 337.75,-165.31 337.75,-171.73 337.75,-171.73 337.75,-174.94 334.54,-178.15 331.33,-178.15"/>
<text xml:space="preserve" text-anchor="start" x="269.75" y="-165.15" font-family="Helvetica,sans-Serif" font-size="9.00">retro&#45;timer.ts</text>
</a>
</g>
</g>
<!-- src/components/retro&#45;board.ts&#45;&gt;src/components/retro&#45;timer.ts -->
<g id="edge12" class="edge">
<title>src/components/retro&#45;board.ts&#45;&gt;src/components/retro&#45;timer.ts</title>
<path fill="none" stroke="#000000" stroke-width="2" stroke-opacity="0.200000" d="M234.08,-162.27C240.1,-162.86 246.36,-163.46 252.51,-164.05"/>
<polygon fill="#000000" fill-opacity="0.200000" stroke="#000000" stroke-width="2" stroke-opacity="0.200000" points="252.23,-166.14 258.4,-164.62 252.63,-161.96 252.23,-166.14"/>
</g>
<!-- src/components/retro&#45;column.ts&#45;&gt;src/types.ts -->
<g id="edge16" class="edge">
<title>src/components/retro&#45;column.ts&#45;&gt;src/types.ts</title>
<path fill="none" stroke="#000000" stroke-opacity="0.200000" d="M336.08,-147.6C338.56,-149.03 340.9,-150.67 343,-152.52 352.68,-161.08 345.54,-170.94 356,-178.52 385.47,-199.88 404.84,-173.48 437,-190.52 446.46,-195.54 454.66,-204.24 460.64,-211.95"/>
<polygon fill="none" stroke="#000000" stroke-opacity="0.200000" points="458.63,-212.76 463.87,-216.36 462.01,-210.28 458.63,-212.76"/>
</g>
<!-- src/components/retro&#45;column.ts&#45;&gt;src/icons.ts -->
<g id="edge15" class="edge">
<title>src/components/retro&#45;column.ts&#45;&gt;src/icons.ts</title>
<path fill="none" stroke="#000000" stroke-width="2" stroke-opacity="0.200000" d="M343.35,-134.25C370.65,-131.28 406.56,-125.73 437,-115.52 440.16,-114.46 443.38,-113.13 446.52,-111.67"/>
<polygon fill="#000000" fill-opacity="0.200000" stroke="#000000" stroke-width="2" stroke-opacity="0.200000" points="447.43,-113.57 451.84,-108.99 445.53,-109.82 447.43,-113.57"/>
</g>
<!-- src/components/retro&#45;card.ts -->
<g id="node10" class="node">
<title>src/components/retro&#45;card.ts</title>
<g id="a_node10"><a xlink:href="src/components/retro-card.ts" xlink:title="retro&#45;card.ts">
<path fill="#ddfeff" stroke="black" d="M422.58,-172.15C422.58,-172.15 362.42,-172.15 362.42,-172.15 359.21,-172.15 356,-168.94 356,-165.73 356,-165.73 356,-159.31 356,-159.31 356,-156.11 359.21,-152.9 362.42,-152.9 362.42,-152.9 422.58,-152.9 422.58,-152.9 425.79,-152.9 429,-156.11 429,-159.31 429,-159.31 429,-165.73 429,-165.73 429,-168.94 425.79,-172.15 422.58,-172.15"/>
<text xml:space="preserve" text-anchor="start" x="364" y="-159.15" font-family="Helvetica,sans-Serif" font-size="9.00">retro&#45;card.ts</text>
</a>
</g>
</g>
<!-- src/components/retro&#45;column.ts&#45;&gt;src/components/retro&#45;card.ts -->
<g id="edge17" class="edge">
<title>src/components/retro&#45;column.ts&#45;&gt;src/components/retro&#45;card.ts</title>
<path fill="none" stroke="#000000" stroke-width="2" stroke-opacity="0.200000" d="M337.4,-147.62C340.59,-148.5 343.84,-149.39 347.08,-150.28"/>
<polygon fill="#000000" fill-opacity="0.200000" stroke="#000000" stroke-width="2" stroke-opacity="0.200000" points="346.34,-152.26 352.68,-151.83 347.45,-148.21 346.34,-152.26"/>
</g>
<!-- src/components/retro&#45;timer.ts&#45;&gt;src/api.ts -->
<g id="edge18" class="edge">
<title>src/components/retro&#45;timer.ts&#45;&gt;src/api.ts</title>
<path fill="none" stroke="#000000" stroke-width="2" stroke-opacity="0.200000" d="M338.05,-178.33C339.84,-179.56 341.51,-180.95 343,-182.52 357.94,-198.23 342.83,-212.31 356,-229.52 357.7,-231.74 359.7,-233.77 361.88,-235.62"/>
<polygon fill="#000000" fill-opacity="0.200000" stroke="#000000" stroke-width="2" stroke-opacity="0.200000" points="360.25,-237.03 366.35,-238.84 362.71,-233.63 360.25,-237.03"/>
</g>
<!-- src/components/retro&#45;timer.ts&#45;&gt;src/types.ts -->
<g id="edge20" class="edge">
<title>src/components/retro&#45;timer.ts&#45;&gt;src/types.ts</title>
<path fill="none" stroke="#000000" stroke-opacity="0.200000" d="M332.81,-178.49C336.28,-179.76 339.74,-181.12 343,-182.52 349.03,-185.12 349.88,-187.16 356,-189.52 390.6,-202.86 402.35,-196.3 437,-209.52 440.5,-210.86 444.1,-212.47 447.58,-214.18"/>
<polygon fill="none" stroke="#000000" stroke-opacity="0.200000" points="446.44,-215.95 452.74,-216.83 448.36,-212.22 446.44,-215.95"/>
</g>
<!-- src/components/retro&#45;timer.ts&#45;&gt;src/icons.ts -->
<g id="edge19" class="edge">
<title>src/components/retro&#45;timer.ts&#45;&gt;src/icons.ts</title>
<path fill="none" stroke="#000000" stroke-width="2" stroke-opacity="0.200000" d="M330.98,-158.43C335.06,-156.88 339.16,-155.23 343,-153.52 349,-150.86 349.85,-148.81 356,-146.52 390.56,-133.66 404.27,-145.52 437,-128.52 444.24,-124.76 451.11,-119.08 456.75,-113.59"/>
<polygon fill="#000000" fill-opacity="0.200000" stroke="#000000" stroke-width="2" stroke-opacity="0.200000" points="458,-115.33 460.66,-109.55 454.98,-112.41 458,-115.33"/>
</g>
<!-- src/components/retro&#45;card.ts&#45;&gt;src/types.ts -->
<g id="edge14" class="edge">
<title>src/components/retro&#45;card.ts&#45;&gt;src/types.ts</title>
<path fill="none" stroke="#000000" stroke-opacity="0.200000" d="M429.18,-171.73C431.94,-173.12 434.59,-174.7 437,-176.52 448.81,-185.45 457.83,-199.73 463.6,-210.92"/>
<polygon fill="none" stroke="#000000" stroke-opacity="0.200000" points="461.58,-211.58 466.1,-216.05 465.35,-209.73 461.58,-211.58"/>
</g>
<!-- src/components/retro&#45;card.ts&#45;&gt;src/icons.ts -->
<g id="edge13" class="edge">
<title>src/components/retro&#45;card.ts&#45;&gt;src/icons.ts</title>
<path fill="none" stroke="#000000" stroke-width="2" stroke-opacity="0.200000" d="M429.18,-153.31C431.94,-151.93 434.59,-150.34 437,-148.52 448.37,-139.93 457.14,-126.38 462.93,-115.4"/>
<polygon fill="#000000" fill-opacity="0.200000" stroke="#000000" stroke-width="2" stroke-opacity="0.200000" points="464.65,-116.66 465.43,-110.35 460.89,-114.8 464.65,-116.66"/>
</g>
<!-- src/components/session&#45;history.ts -->
<g id="node11" class="node">
<title>src/components/session&#45;history.ts</title>
<g id="a_node11"><a xlink:href="src/components/session-history.ts" xlink:title="session&#45;history.ts">
<path fill="#ddfeff" stroke="black" d="M233.71,-106.15C233.71,-106.15 154.79,-106.15 154.79,-106.15 151.58,-106.15 148.38,-102.94 148.38,-99.73 148.38,-99.73 148.38,-93.31 148.38,-93.31 148.38,-90.11 151.58,-86.9 154.79,-86.9 154.79,-86.9 233.71,-86.9 233.71,-86.9 236.92,-86.9 240.12,-90.11 240.12,-93.31 240.12,-93.31 240.12,-99.73 240.12,-99.73 240.12,-102.94 236.92,-106.15 233.71,-106.15"/>
<text xml:space="preserve" text-anchor="start" x="156.38" y="-93.15" font-family="Helvetica,sans-Serif" font-size="9.00">session&#45;history.ts</text>
</a>
</g>
</g>
<!-- src/components/session&#45;history.ts&#45;&gt;src/icons.ts -->
<g id="edge21" class="edge">
<title>src/components/session&#45;history.ts&#45;&gt;src/icons.ts</title>
<path fill="none" stroke="#000000" stroke-width="2" stroke-opacity="0.200000" d="M240.4,-94.06C245.82,-93.84 251.28,-93.65 256.5,-93.52 333.88,-91.63 355.42,-89.02 435.66,-93.59"/>
<polygon fill="#000000" fill-opacity="0.200000" stroke="#000000" stroke-width="2" stroke-opacity="0.200000" points="435.53,-95.68 441.65,-93.94 435.78,-91.49 435.53,-95.68"/>
</g>
<!-- src/components/session&#45;history.ts&#45;&gt;src/storage.ts -->
<g id="edge22" class="edge">
<title>src/components/session&#45;history.ts&#45;&gt;src/storage.ts</title>
<path fill="none" stroke="#000000" stroke-opacity="0.200000" d="M238.18,-106.51C240.14,-107.97 241.94,-109.63 243.5,-111.52 260.28,-131.88 244.9,-205.83 256.5,-229.52 261.54,-239.82 270.27,-248.96 278.49,-255.98"/>
<polygon fill="none" stroke="#000000" stroke-opacity="0.200000" points="276.89,-257.39 282.87,-259.54 279.54,-254.13 276.89,-257.39"/>
</g>
<!-- src/pages/home&#45;page.ts -->
<g id="node12" class="node">
<title>src/pages/home&#45;page.ts</title>
<g id="a_node12"><a xlink:href="src/pages/home-page.ts" xlink:title="home&#45;page.ts">
<path fill="#ddfeff" stroke="black" d="M105.21,-231.15C105.21,-231.15 39.79,-231.15 39.79,-231.15 36.58,-231.15 33.38,-227.94 33.38,-224.73 33.38,-224.73 33.38,-218.31 33.38,-218.31 33.38,-215.11 36.58,-211.9 39.79,-211.9 39.79,-211.9 105.21,-211.9 105.21,-211.9 108.42,-211.9 111.62,-215.11 111.62,-218.31 111.62,-218.31 111.62,-224.73 111.62,-224.73 111.62,-227.94 108.42,-231.15 105.21,-231.15"/>
<text xml:space="preserve" text-anchor="start" x="41.38" y="-218.15" font-family="Helvetica,sans-Serif" font-size="9.00">home&#45;page.ts</text>
</a>
</g>
</g>
<!-- src/pages/home&#45;page.ts&#45;&gt;src/api.ts -->
<g id="edge23" class="edge">
<title>src/pages/home&#45;page.ts&#45;&gt;src/api.ts</title>
<path fill="none" stroke="#000000" stroke-width="2" stroke-opacity="0.200000" d="M111.93,-230.32C117.74,-232.1 123.6,-234.17 129,-236.52 132.84,-238.2 133.06,-240.09 137,-241.52 181.91,-257.88 205.47,-227.56 243.5,-256.52 255.06,-265.33 244.35,-278.55 256.5,-286.52 288.64,-307.62 306.5,-298.59 343,-286.52 355.26,-282.47 366.94,-273.99 375.77,-266.28"/>
<polygon fill="#000000" fill-opacity="0.200000" stroke="#000000" stroke-width="2" stroke-opacity="0.200000" points="376.98,-268.02 379.96,-262.41 374.13,-264.93 376.98,-268.02"/>
</g>
<!-- src/pages/home&#45;page.ts&#45;&gt;src/icons.ts -->
<g id="edge25" class="edge">
<title>src/pages/home&#45;page.ts&#45;&gt;src/icons.ts</title>
<path fill="none" stroke="#000000" stroke-width="2" stroke-opacity="0.200000" d="M73.62,-211.56C74.59,-181.2 82.13,-89.6 137,-51.52 246.54,24.49 317.95,8.52 437,-51.52 448.64,-57.39 457.28,-69.33 462.94,-79.58"/>
<polygon fill="#000000" fill-opacity="0.200000" stroke="#000000" stroke-width="2" stroke-opacity="0.200000" points="461.05,-80.5 465.63,-84.91 464.8,-78.61 461.05,-80.5"/>
</g>
<!-- src/pages/home&#45;page.ts&#45;&gt;src/storage.ts -->
<g id="edge26" class="edge">
<title>src/pages/home&#45;page.ts&#45;&gt;src/storage.ts</title>
<path fill="none" stroke="#000000" stroke-width="2" stroke-opacity="0.200000" d="M112.02,-226.36C158.27,-232.26 231.17,-241.89 243.5,-245.52 249.6,-247.32 250.71,-248.88 256.5,-251.52 260.32,-253.26 264.35,-255.09 268.33,-256.88"/>
<polygon fill="#000000" fill-opacity="0.200000" stroke="#000000" stroke-width="2" stroke-opacity="0.200000" points="267.27,-258.71 273.61,-259.26 269,-254.88 267.27,-258.71"/>
</g>
<!-- src/pages/home&#45;page.ts&#45;&gt;src/components/session&#45;history.ts -->
<g id="edge24" class="edge">
<title>src/pages/home&#45;page.ts&#45;&gt;src/components/session&#45;history.ts</title>
<path fill="none" stroke="#000000" stroke-width="2" stroke-opacity="0.200000" d="M76.36,-211.56C83.12,-189.88 102.17,-138.22 137,-111.52 138.05,-110.72 139.15,-109.95 140.27,-109.23"/>
<polygon fill="#000000" fill-opacity="0.200000" stroke="#000000" stroke-width="2" stroke-opacity="0.200000" points="141.14,-111.14 145.44,-106.46 139.16,-107.44 141.14,-111.14"/>
</g>
<!-- src/theme.ts -->
<g id="node13" class="node">
<title>src/theme.ts</title>
<g id="a_node13"><a xlink:href="src/theme.ts" xlink:title="theme.ts">
<path fill="#ddfeff" stroke="black" d="M216.08,-282.15C216.08,-282.15 172.42,-282.15 172.42,-282.15 169.21,-282.15 166,-278.94 166,-275.73 166,-275.73 166,-269.31 166,-269.31 166,-266.11 169.21,-262.9 172.42,-262.9 172.42,-262.9 216.08,-262.9 216.08,-262.9 219.29,-262.9 222.5,-266.11 222.5,-269.31 222.5,-269.31 222.5,-275.73 222.5,-275.73 222.5,-278.94 219.29,-282.15 216.08,-282.15"/>
<text xml:space="preserve" text-anchor="start" x="174" y="-269.15" font-family="Helvetica,sans-Serif" font-size="9.00">theme.ts</text>
</a>
</g>
</g>
<!-- src/pages/home&#45;page.ts&#45;&gt;src/theme.ts -->
<g id="edge27" class="edge">
<title>src/pages/home&#45;page.ts&#45;&gt;src/theme.ts</title>
<path fill="none" stroke="#000000" stroke-width="2" stroke-opacity="0.200000" d="M112.07,-227.26C118.19,-229.43 124.1,-232.42 129,-236.52 135.4,-241.89 130.77,-247.96 137,-253.52 142.75,-258.65 149.94,-262.4 157.23,-265.15"/>
<polygon fill="#000000" fill-opacity="0.200000" stroke="#000000" stroke-width="2" stroke-opacity="0.200000" points="156.53,-267.13 162.89,-266.99 157.84,-263.14 156.53,-267.13"/>
</g>
<!-- src/pages/not&#45;found&#45;page.ts -->
<g id="node14" class="node">
<title>src/pages/not&#45;found&#45;page.ts</title>
<g id="a_node14"><a xlink:href="src/pages/not-found-page.ts" xlink:title="not&#45;found&#45;page.ts">
<path fill="#ccffcc" stroke="black" d="M114.58,-262.15C114.58,-262.15 30.42,-262.15 30.42,-262.15 27.21,-262.15 24,-258.94 24,-255.73 24,-255.73 24,-249.31 24,-249.31 24,-246.11 27.21,-242.9 30.42,-242.9 30.42,-242.9 114.58,-242.9 114.58,-242.9 117.79,-242.9 121,-246.11 121,-249.31 121,-249.31 121,-255.73 121,-255.73 121,-258.94 117.79,-262.15 114.58,-262.15"/>
<text xml:space="preserve" text-anchor="start" x="32" y="-249.15" font-family="Helvetica,sans-Serif" font-size="9.00">not&#45;found&#45;page.ts</text>
</a>
</g>
</g>
<!-- src/pages/session&#45;page.ts -->
<g id="node15" class="node">
<title>src/pages/session&#45;page.ts</title>
<g id="a_node15"><a xlink:href="src/pages/session-page.ts" xlink:title="session&#45;page.ts">
<path fill="#ddfeff" stroke="black" d="M108.58,-293.15C108.58,-293.15 36.42,-293.15 36.42,-293.15 33.21,-293.15 30,-289.94 30,-286.73 30,-286.73 30,-280.31 30,-280.31 30,-277.11 33.21,-273.9 36.42,-273.9 36.42,-273.9 108.58,-273.9 108.58,-273.9 111.79,-273.9 115,-277.11 115,-280.31 115,-280.31 115,-286.73 115,-286.73 115,-289.94 111.79,-293.15 108.58,-293.15"/>
<text xml:space="preserve" text-anchor="start" x="38" y="-280.15" font-family="Helvetica,sans-Serif" font-size="9.00">session&#45;page.ts</text>
</a>
</g>
</g>
<!-- src/pages/session&#45;page.ts&#45;&gt;src/api.ts -->
<g id="edge28" class="edge">
<title>src/pages/session&#45;page.ts&#45;&gt;src/api.ts</title>
<path fill="none" stroke="#000000" stroke-width="2" stroke-opacity="0.200000" d="M115.39,-291.72C122.57,-292.86 129.98,-293.86 137,-294.52 228.15,-303.13 257.95,-330.44 343,-296.52 357.71,-290.65 370.53,-277.97 379.28,-267.4"/>
<polygon fill="#000000" fill-opacity="0.200000" stroke="#000000" stroke-width="2" stroke-opacity="0.200000" points="380.75,-268.93 382.8,-262.91 377.44,-266.34 380.75,-268.93"/>
</g>
<!-- src/pages/session&#45;page.ts&#45;&gt;src/types.ts -->
<g id="edge37" class="edge">
<title>src/pages/session&#45;page.ts&#45;&gt;src/types.ts</title>
<path fill="none" stroke="#000000" stroke-opacity="0.200000" d="M115.38,-292.28C120.12,-294.01 124.77,-296.07 129,-298.52 133.35,-301.04 132.37,-304.56 137,-306.52 221.29,-342.27 253.45,-327.62 343,-308.52 387.75,-298.98 400.22,-293.74 437,-266.52 445.75,-260.05 453.83,-250.97 459.92,-243.2"/>
<polygon fill="none" stroke="#000000" stroke-opacity="0.200000" points="461.31,-244.84 463.25,-238.79 457.96,-242.31 461.31,-244.84"/>
</g>
<!-- src/pages/session&#45;page.ts&#45;&gt;src/components/board&#45;notes.ts -->
<g id="edge29" class="edge">
<title>src/pages/session&#45;page.ts&#45;&gt;src/components/board&#45;notes.ts</title>
<path fill="none" stroke="#000000" stroke-width="2" stroke-opacity="0.200000" d="M115.44,-278.41C120.65,-276.11 125.4,-272.93 129,-268.52 146.75,-246.8 119.21,-164.22 137,-142.52 139.31,-139.7 142.09,-137.38 145.16,-135.47"/>
<polygon fill="#000000" fill-opacity="0.200000" stroke="#000000" stroke-width="2" stroke-opacity="0.200000" points="146.08,-137.36 150.56,-132.84 144.24,-133.58 146.08,-137.36"/>
</g>
<!-- src/pages/session&#45;page.ts&#45;&gt;src/icons.ts -->
<g id="edge33" class="edge">
<title>src/pages/session&#45;page.ts&#45;&gt;src/icons.ts</title>
<path fill="none" stroke="#000000" stroke-width="2" stroke-opacity="0.200000" d="M115.27,-278.61C120.57,-276.29 125.39,-273.05 129,-268.52 143.07,-250.87 120.73,-81.17 137,-65.52 185.06,-19.32 375.03,-40.95 437,-65.52 445.19,-68.77 452.55,-75.03 458.32,-81.16"/>
<polygon fill="#000000" fill-opacity="0.200000" stroke="#000000" stroke-width="2" stroke-opacity="0.200000" points="456.41,-82.16 461.92,-85.32 459.58,-79.41 456.41,-82.16"/>
</g>
<!-- src/pages/session&#45;page.ts&#45;&gt;src/components/feedback&#45;dialog.ts -->
<g id="edge30" class="edge">
<title>src/pages/session&#45;page.ts&#45;&gt;src/components/feedback&#45;dialog.ts</title>
<path fill="none" stroke="#000000" stroke-width="2" stroke-opacity="0.200000" d="M115.49,-278.09C120.62,-275.84 125.34,-272.74 129,-268.52 148.08,-246.54 117.71,-225.32 137,-203.52 137.28,-203.21 137.56,-202.91 137.84,-202.61"/>
<polygon fill="#000000" fill-opacity="0.200000" stroke="#000000" stroke-width="2" stroke-opacity="0.200000" points="138.84,-204.5 142.21,-199.11 136.21,-201.22 138.84,-204.5"/>
</g>
<!-- src/pages/session&#45;page.ts&#45;&gt;src/storage.ts -->
<g id="edge35" class="edge">
<title>src/pages/session&#45;page.ts&#45;&gt;src/storage.ts</title>
<path fill="none" stroke="#000000" stroke-width="2" stroke-opacity="0.200000" d="M115.35,-289.06C149.93,-292.61 200.2,-295.4 243.5,-288.52 250.73,-287.37 258.31,-285.43 265.45,-283.23"/>
<polygon fill="#000000" fill-opacity="0.200000" stroke="#000000" stroke-width="2" stroke-opacity="0.200000" points="265.65,-285.37 270.7,-281.51 264.35,-281.38 265.65,-285.37"/>
</g>
<!-- src/pages/session&#45;page.ts&#45;&gt;src/components/retro&#45;board.ts -->
<g id="edge31" class="edge">
<title>src/pages/session&#45;page.ts&#45;&gt;src/components/retro&#45;board.ts</title>
<path fill="none" stroke="#000000" stroke-width="2" stroke-opacity="0.200000" d="M115.36,-278.34C120.58,-276.06 125.35,-272.89 129,-268.52 142.57,-252.26 123.4,-189.77 137,-173.52 139.63,-170.39 142.83,-167.87 146.36,-165.85"/>
<polygon fill="#000000" fill-opacity="0.200000" stroke="#000000" stroke-width="2" stroke-opacity="0.200000" points="147.14,-167.8 151.75,-163.42 145.42,-163.97 147.14,-167.8"/>
</g>
<!-- src/pages/session&#45;page.ts&#45;&gt;src/components/session&#45;history.ts -->
<g id="edge32" class="edge">
<title>src/pages/session&#45;page.ts&#45;&gt;src/components/session&#45;history.ts</title>
<path fill="none" stroke="#000000" stroke-width="2" stroke-opacity="0.200000" d="M115.49,-278.45C120.69,-276.15 125.43,-272.95 129,-268.52 150.94,-241.33 115.02,-138.67 137,-111.52 138.12,-110.14 139.35,-108.87 140.68,-107.72"/>
<polygon fill="#000000" fill-opacity="0.200000" stroke="#000000" stroke-width="2" stroke-opacity="0.200000" points="141.65,-109.59 145.46,-104.5 139.31,-106.11 141.65,-109.59"/>
</g>
<!-- src/pages/session&#45;page.ts&#45;&gt;src/theme.ts -->
<g id="edge36" class="edge">
<title>src/pages/session&#45;page.ts&#45;&gt;src/theme.ts</title>
<path fill="none" stroke="#000000" stroke-width="2" stroke-opacity="0.200000" d="M115.38,-279.67C128.97,-278.43 143.93,-277.05 157.07,-275.85"/>
<polygon fill="#000000" fill-opacity="0.200000" stroke="#000000" stroke-width="2" stroke-opacity="0.200000" points="157.04,-277.96 162.82,-275.32 156.65,-273.78 157.04,-277.96"/>
</g>
<!-- src/sse.ts -->
<g id="node16" class="node">
<title>src/sse.ts</title>
<g id="a_node16"><a xlink:href="src/sse.ts" xlink:title="sse.ts">
<path fill="#ddfeff" stroke="black" d="M214.83,-356.15C214.83,-356.15 173.67,-356.15 173.67,-356.15 170.46,-356.15 167.25,-352.94 167.25,-349.73 167.25,-349.73 167.25,-343.31 167.25,-343.31 167.25,-340.11 170.46,-336.9 173.67,-336.9 173.67,-336.9 214.83,-336.9 214.83,-336.9 218.04,-336.9 221.25,-340.11 221.25,-343.31 221.25,-343.31 221.25,-349.73 221.25,-349.73 221.25,-352.94 218.04,-356.15 214.83,-356.15"/>
<text xml:space="preserve" text-anchor="start" x="181.5" y="-343.15" font-family="Helvetica,sans-Serif" font-size="9.00">sse.ts</text>
</a>
</g>
</g>
<!-- src/pages/session&#45;page.ts&#45;&gt;src/sse.ts -->
<g id="edge34" class="edge">
<title>src/pages/session&#45;page.ts&#45;&gt;src/sse.ts</title>
<path fill="none" stroke="#000000" stroke-width="2" stroke-opacity="0.200000" d="M115.5,-289.7C120.5,-291.86 125.18,-294.72 129,-298.52 138.48,-307.95 127.82,-317.8 137,-327.52 142.72,-333.57 150.43,-337.7 158.31,-340.51"/>
<polygon fill="#000000" fill-opacity="0.200000" stroke="#000000" stroke-width="2" stroke-opacity="0.200000" points="157.58,-342.48 163.93,-342.2 158.79,-338.46 157.58,-342.48"/>
</g>
<!-- src/sse.ts&#45;&gt;src/types.ts -->
<g id="edge41" class="edge">
<title>src/sse.ts&#45;&gt;src/types.ts</title>
<path fill="none" stroke="#000000" stroke-opacity="0.200000" d="M221.43,-352.93C269.65,-363.09 373.35,-377 437,-327.52 462.51,-307.69 469.01,-267.78 470.59,-244.83"/>
<polygon fill="none" stroke="#000000" stroke-opacity="0.200000" points="472.67,-245.09 470.88,-238.99 468.48,-244.87 472.67,-245.09"/>
</g>
<!-- src/pages/stats&#45;page.ts -->
<g id="node17" class="node">
<title>src/pages/stats&#45;page.ts</title>
<g id="a_node17"><a xlink:href="src/pages/stats-page.ts" xlink:title="stats&#45;page.ts">
<path fill="#ddfeff" stroke="black" d="M103.33,-324.15C103.33,-324.15 41.67,-324.15 41.67,-324.15 38.46,-324.15 35.25,-320.94 35.25,-317.73 35.25,-317.73 35.25,-311.31 35.25,-311.31 35.25,-308.11 38.46,-304.9 41.67,-304.9 41.67,-304.9 103.33,-304.9 103.33,-304.9 106.54,-304.9 109.75,-308.11 109.75,-311.31 109.75,-311.31 109.75,-317.73 109.75,-317.73 109.75,-320.94 106.54,-324.15 103.33,-324.15"/>
<text xml:space="preserve" text-anchor="start" x="43.25" y="-311.15" font-family="Helvetica,sans-Serif" font-size="9.00">stats&#45;page.ts</text>
</a>
</g>
</g>
<!-- src/pages/stats&#45;page.ts&#45;&gt;src/api.ts -->
<g id="edge38" class="edge">
<title>src/pages/stats&#45;page.ts&#45;&gt;src/api.ts</title>
<path fill="none" stroke="#000000" stroke-width="2" stroke-opacity="0.200000" d="M82.64,-324.6C94.03,-336.34 114.73,-355.05 137,-362.52 181.88,-377.57 197.62,-374.17 243.5,-362.52 292.27,-350.14 304.06,-340.39 343,-308.52 357.47,-296.68 370.85,-280.06 379.88,-267.65"/>
<polygon fill="#000000" fill-opacity="0.200000" stroke="#000000" stroke-width="2" stroke-opacity="0.200000" points="381.41,-269.12 383.16,-263.01 377.98,-266.7 381.41,-269.12"/>
</g>
<!-- src/pages/stats&#45;page.ts&#45;&gt;src/types.ts -->
<g id="edge40" class="edge">
<title>src/pages/stats&#45;page.ts&#45;&gt;src/types.ts</title>
<path fill="none" stroke="#000000" stroke-opacity="0.200000" d="M80.73,-324.55C91.29,-338.22 112.37,-362.09 137,-371.52 196.57,-394.34 432.4,-351.47 437,-347.52 467.09,-321.71 471.53,-271.45 471.62,-244.91"/>
<polygon fill="none" stroke="#000000" stroke-opacity="0.200000" points="473.72,-244.97 471.55,-239 469.52,-245.02 473.72,-244.97"/>
</g>
<!-- src/pages/stats&#45;page.ts&#45;&gt;src/icons.ts -->
<g id="edge39" class="edge">
<title>src/pages/stats&#45;page.ts&#45;&gt;src/icons.ts</title>
<path fill="none" stroke="#000000" stroke-width="2" stroke-opacity="0.200000" d="M110.23,-311.51C117.47,-309.2 124.28,-305.46 129,-299.52 144.49,-280.02 119.08,-92.82 137,-75.52 160.99,-52.38 405.03,-66.08 437,-75.52 442.18,-77.05 447.32,-79.65 451.97,-82.53"/>
<polygon fill="#000000" fill-opacity="0.200000" stroke="#000000" stroke-width="2" stroke-opacity="0.200000" points="450.62,-84.15 456.76,-85.81 452.99,-80.69 450.62,-84.15"/>
</g>
</g>
</svg>
